<?xml version="1.0" encoding="UTF-8"?>
<!DOCTYPE svg PUBLIC "-//W3C//DTD SVG 1.1//EN" "http://www.w3.org/Graphics/SVG/1.1/DTD/svg11.dtd">
<!-- Creator: CorelDRAW X7 -->
<svg xmlns="http://www.w3.org/2000/svg" xml:space="preserve" width="28.193in" height="12.5245in" version="1.1" style="shape-rendering:geometricPrecision; text-rendering:geometricPrecision; image-rendering:optimizeQuality; fill-rule:evenodd; clip-rule:evenodd"
viewBox="0 0 27533 12231"
 xmlns:xlink="http://www.w3.org/1999/xlink">
 <defs>
  <style type="text/css">
   <![CDATA[
    .str2 {stroke:#2B2A29;stroke-width:6.78227}
    .str5 {stroke:#5D6B21;stroke-width:6.78227}
    .str6 {stroke:#5D6B21;stroke-width:6.78227}
    .str4 {stroke:#6F7F2A;stroke-width:6.78227}
    .str1 {stroke:#724C1E;stroke-width:6.78227}
    .str0 {stroke:#724C1E;stroke-width:6.78227}
    .str3 {stroke:#B6874F;stroke-width:6.78227}
    .fil0 {fill:none}
    .fil22 {fill:#252422}
    .fil20 {fill:#039BC6}
    .fil18 {fill:#124A6A}
    .fil21 {fill:#394D54}
    .fil17 {fill:#6EAFC1}
    .fil8 {fill:#6F7F2A}
    .fil3 {fill:#7E932F}
    .fil11 {fill:#7E932F}
    .fil16 {fill:#876048}
    .fil7 {fill:#A4CD39}
    .fil10 {fill:#B6874F}
    .fil1 {fill:#B6874F}
    .fil6 {fill:#B7B3B0}
    .fil5 {fill:#B7B3B0}
    .fil19 {fill:#BFDBE0}
    .fil4 {fill:#D6D1CC}
    .fil15 {fill:#D6D1CC}
    .fil14 {fill:#E3B06F}
    .fil9 {fill:#E6E4E1}
    .fil2 {fill:#E6E4E1}
    .fil13 {fill:#D6D1CC;fill-rule:nonzero}
    .fil12 {fill:#E6E4E1;fill-rule:nonzero}
   ]]>
  </style>
 </defs>
 <g id="Слой_x0020_1">
  <metadata id="CorelCorpID_0Corel-Layer"/>
  <polygon class="fil0" points="0,0 27533,0 27533,12228 0,12228 "/>
  <g id="_2394245626240">
   <g>
    <polygon class="fil1 str0" points="20253,5692 19856,6757 20120,6567 20518,5502 19471,5111 19206,5301 "/>
    <line class="fil0 str1" x1="20253" y1="5692" x2="20518" y2= "5502" />
    <polyline class="fil0 str1" points="19206,5301 18809,6366 19856,6757 "/>
    <g>
     <rect class="fil1 str0" transform="matrix(0.936858 0.349711 -0.349711 0.936858 19206 5301.22)" width="1118" height="1137"/>
     <polyline class="fil0" points="19471,5111 20518,5502 20120,6567 "/>
     <line class="fil0" x1="19206" y1="5301" x2="19471" y2= "5111" />
     <line class="fil0" x1="20120" y1="6567" x2="19856" y2= "6757" />
     <line class="fil0" x1="20518" y1="5502" x2="20253" y2= "5692" />
    </g>
   </g>
   <path class="fil2 str1" d="M19576 6024c-70,96 -127,174 -126,174 0,1 33,25 33,25 1,0 252,-344 253,-346 1,-1 0,-2 -16,-14 -9,-6 -16,-12 -17,-12 0,0 -57,78 -127,173z"/>
   <path class="fil2 str1" d="M19380 5854l-122 55 54 121c30,66 55,121 55,122 0,0 17,-7 37,-16l36 -16 -38 -85 -38 -86 85 -38 85 -38 -16 -36c-9,-20 -16,-36 -17,-36 0,-1 -55,24 -121,53z"/>
   <path class="fil2 str1" d="M19783 5938l-37 16 38 86 39 85 -86 38 -85 38 16 36c9,20 17,37 17,36 1,0 56,-24 122,-54l121 -54 -54 -121c-30,-67 -54,-122 -55,-122 0,0 -17,7 -36,16z"/>
  </g>
  <rect class="fil3 str2" x="5392" y="1457" width="3124" height="3825" rx="190" ry="283"/>
  <rect class="fil4 str2" x="8528" y="2271" width="1449" height="591"/>
  <rect class="fil5 str2" x="9628" y="2224" width="67.1114" height="691.253"/>
  <polygon class="fil6 str2" points="10057,2231 10628,1895 10628,3311 10057,2915 9981,2915 9981,2231 "/>
  <rect class="fil5 str2" x="9767" y="2227" width="67.1114" height="691.253"/>
  <rect class="fil1 str3" transform="matrix(0.977255 -0.212067 0.212067 0.977255 10737.1 2480.33)" width="1118" height="1137"/>
  <polyline class="fil0" points="10857,2177 11949,1940 12190,3051 "/>
  <line class="fil0" x1="10737" y1="2480" x2="10857" y2= "2177" />
  <line class="fil0" x1="12190" y1="3051" x2="12070" y2= "3354" />
  <line class="fil0" x1="11949" y1="1940" x2="11829" y2= "2243" />
  <rect class="fil7 str4" x="11333" y="3846" width="5348" height="610" rx="273" ry="273"/>
  <rect class="fil3 str4" x="11400" y="3921" width="5215" height="460" rx="267" ry="206"/>
  <circle class="fil8 str5" cx="11641" cy="4152" r="168"/>
  <circle class="fil9 str6" cx="11641" cy="4152" r="129"/>
  <circle class="fil8 str6" cx="16355" cy="4156" r="168"/>
  <circle class="fil2 str6" cx="16355" cy="4156" r="129"/>
  <rect class="fil10 str0" x="15171" y="2650" width="1118" height="1137"/>
  <rect class="fil3 str2" x="16491" y="1567" width="386" height="2132"/>
  <polygon class="fil3 str2" points="16325,2281 15406,2289 15407,2388 16325,2388 16325,2542 16432,2542 16432,1989 16328,1989 "/>
  <polygon class="fil3 str2" points="17052,2287 17972,2294 17970,2394 17052,2394 17052,2548 16945,2548 16945,1995 17050,1995 "/>
  <circle class="fil11 str6" cx="17035" cy="1059" r="295"/>
  <circle class="fil8 str6" cx="17035" cy="1059" r="183"/>
  <circle class="fil2 str6" cx="17035" cy="1059" r="124"/>
  <circle class="fil8 str6" cx="16698" cy="1604" r="85"/>
  <circle class="fil2 str6" cx="16698" cy="1604" r="37"/>
  <path class="fil6 str2" d="M16662 1526l78 3c-5,-128 -12,-344 -5,-458 10,-163 83,-266 249,-303 42,-9 73,-6 134,3 440,96 607,1349 627,1660 19,309 40,677 30,678l81 -4c2,-352 -74,-1542 -392,-2118 -88,-158 -213,-282 -336,-304 -238,-21 -452,68 -466,394l0 449z"/>
  <path class="fil12 str2" d="M16696 2986l53 -127 -27 0 0 -256 27 0 -53 -128 -52 128 26 0 0 256 -26 0 52 127zm26 -63m13 -64m-13 -128m13 -128m-13 -64m-52 0m-13 64m13 128m-13 128m13 64"/>
  <path class="fil13 str2" d="M17749 3104l127 -9 80 229 -255 18 48 -238zm63 -4m104 110m-88 123m-103 -110"/>
  <path class="fil14 str2" d="M17921 3236c21,26 27,40 26,75l-331 0c-39,17 -38,68 6,72l102 -1c18,9 4,30 -2,30l-134 2c-54,-5 -53,80 -12,77l157 1c18,3 13,18 -1,22l-155 3c-39,4 -33,72 -7,74l187 4c0,10 1,14 -7,19l-91 1c-42,19 -22,78 4,79l418 -2c33,-4 49,-29 49,-47l0 -304c-57,-43 -143,-90 -209,-105z"/>
  <path class="fil12 str2" d="M18334 3268l0 244 -23 0 45 245 44 -245 -22 0 0 -244 -44 0zm0 122m-12 122m12 122m44 0m11 -122m-11 -122m-22 -122"/>
  <path class="fil12 str2" d="M8661 2620l414 0 0 44 414 -88 -414 -88 0 44 -414 0 0 88zm207 0m207 22m207 -22m0 -88m-207 -22m-207 22m-207 44"/>
  <path class="fil2 str2" d="M11042 3877l10 26c-72,37 -98,69 -124,155 -20,70 -7,167 41,222 61,70 110,95 208,101l0 -64c-152,3 -266,-153 -173,-291 13,-19 48,-51 73,-60l10 23 190 -120 -235 8z"/>
  <rect class="fil15 str2" x="18778" y="6850" width="1530" height="801"/>
  <polygon class="fil6 str2" points="18778,6850 20308,6850 20307,6756 21193,5946 17999,5945 18778,6751 "/>
  <rect class="fil5 str2" x="19077" y="6989" width="955" height="103"/>
  <rect class="fil5 str2" x="19080" y="7152" width="955" height="103"/>
  <rect class="fil5 str2" x="19080" y="7299" width="955" height="103"/>
  <rect class="fil7 str6" x="14989" y="8672" width="2915" height="640" rx="309" ry="283"/>
  <rect class="fil3 str6" x="15052" y="8764" width="2788" height="466" rx="295" ry="206"/>
  <circle class="fil8 str6" cx="15719" cy="8997" r="170"/>
  <circle class="fil2 str6" cx="15719" cy="8997" r="121"/>
  <circle class="fil8 str6" cx="16446" cy="8997" r="170"/>
  <circle class="fil2 str6" cx="16446" cy="8997" r="121"/>
  <circle class="fil8 str6" cx="17168" cy="8992" r="170"/>
  <circle class="fil2 str6" cx="17168" cy="8992" r="121"/>
  <rect class="fil10 str0" x="15912" y="7530" width="1118" height="1137"/>
  <rect class="fil16 str2" x="20395" y="11925" width="1278" height="303"/>
  <polygon class="fil7 str2" points="20553,11925 21495,11925 21495,8488 20900,8488 20553,8774 "/>
  <rect class="fil3 str6" transform="matrix(0.630725 -0.56398 0.412938 0.461808 19044.4 9891.45)" width="2674" height="640" rx="283" ry="283"/>
  <circle class="fil8 str6" cx="20726" cy="8656" r="170"/>
  <circle class="fil2 str6" cx="20726" cy="8656" r="121"/>
  <path class="fil2 str2" d="M18201 8741l-9 25c71,37 97,69 123,156 21,70 8,167 -41,222 -61,69 -109,94 -208,100l0 -64c152,4 266,-153 173,-290 -13,-20 -48,-51 -73,-60l-9 23 -191 -121 235 9z"/>
  <path class="fil17 str2" d="M11792 9139l2035 0 0 -1668c0,-210 -171,-381 -381,-381l-1273 0c-209,0 -381,171 -381,381l0 1668z"/>
  <rect class="fil18 str2" x="11464" y="9139" width="2699" height="306"/>
  <rect class="fil15 str2" x="13827" y="7706" width="484" height="616"/>
  <polygon class="fil6 str2" points="14387,7672 14958,7336 14958,8752 14387,8356 14311,8356 14311,7672 "/>
  <rect class="fil6 str2" x="14106" y="7666" width="67.1114" height="691.253"/>
  <rect class="fil6 str2" x="13961" y="7666" width="67.1114" height="691.253"/>
  <rect class="fil6 str2" x="13827" y="7668" width="63.7407" height="691.253"/>
  <polygon class="fil4 str2" points="6033,5282 6638,5282 6640,10437 11734,10439 11734,11065 6035,11063 "/>
  <rect class="fil5 str2" x="5987" y="5629" width="687.127" height="70.1142"/>
  <rect class="fil5 str2" x="5984" y="5491" width="687.127" height="70.1142"/>
  <rect class="fil5 str2" x="5985" y="5276" width="687.127" height="64.3546"/>
  <rect class="fil5 str2" transform="matrix(0.55213 -0.54042 -0.54042 -0.55213 6027.28 11104.1)" width="1243.47" height="79.5801"/>
  <rect class="fil7 str6" x="14932" y="11455" width="2915" height="640" rx="309" ry="283"/>
  <rect class="fil3 str6" x="14995" y="11546" width="2788" height="466" rx="295" ry="206"/>
  <circle class="fil8 str6" cx="15663" cy="11779" r="170"/>
  <circle class="fil2 str6" cx="15663" cy="11779" r="121"/>
  <circle class="fil8 str6" cx="16389" cy="11779" r="170"/>
  <circle class="fil2 str6" cx="16389" cy="11779" r="121"/>
  <circle class="fil8 str6" cx="17111" cy="11775" r="170"/>
  <circle class="fil2 str6" cx="17111" cy="11775" r="121"/>
  <path class="fil2 str2" d="M18144 11523l-9 26c71,37 98,69 123,155 21,70 8,167 -40,222 -62,70 -110,95 -209,100l0 -63c152,3 266,-153 174,-291 -14,-19 -49,-51 -74,-60l-9 23 -190 -120 234 8z"/>
  <path class="fil17 str2" d="M11736 11921l2035 0 0 -1668c0,-210 -172,-381 -381,-381l-1274 0c-209,0 -380,171 -380,381l0 1668z"/>
  <rect class="fil18 str2" x="11407" y="11921" width="2699" height="306"/>
  <rect class="fil15 str2" x="13771" y="10488" width="484" height="616"/>
  <polygon class="fil6 str2" points="14330,10455 14901,10119 14901,11535 14331,11139 14254,11138 14254,10455 "/>
  <rect class="fil6 str2" x="14049" y="10449" width="67.1114" height="691.253"/>
  <rect class="fil6 str2" x="13905" y="10449" width="67.1114" height="691.253"/>
  <rect class="fil6 str2" x="13771" y="10451" width="63.7407" height="691.253"/>
  <polygon class="fil15 str2" points="7394,5283 7998,5283 7999,7697 11788,7694 11788,8320 11458,8325 7395,8323 "/>
  <rect class="fil5 str2" x="7355" y="5623" width="687.127" height="70.1142"/>
  <rect class="fil5 str2" x="7353" y="5485" width="687.127" height="70.1142"/>
  <rect class="fil5 str2" x="7354" y="5270" width="687.127" height="64.3546"/>
  <rect class="fil5 str2" transform="matrix(0.55213 -0.54042 -0.54042 -0.55213 7386.37 8364.38)" width="1243.47" height="79.5801"/>
  <rect class="fil4 str2" transform="matrix(2.64845E-014 -1 1 2.64845E-014 5943.95 1456.95)" width="1449" height="591"/>
  <rect class="fil5 str2" transform="matrix(2.64845E-014 -1 1 2.64845E-014 5896.97 356.676)" width="67.1114" height="691.253"/>
  <rect class="fil5 str2" transform="matrix(2.64845E-014 -1 1 2.64845E-014 5899.65 218.067)" width="67.1114" height="691.253"/>
  <path class="fil12 str2" d="M6293 1324l0 -415 44 0 -88 -414 -88 414 44 0 0 415 88 0zm0 -208m22 -207m-22 -207m-88 0m-22 207m22 207m44 208"/>
  <rect class="fil4 str2" transform="matrix(2.64845E-014 -1 1 2.64845E-014 7002.75 1456.95)" width="1449" height="591"/>
  <path class="fil12 str2" d="M7268 124l0 414 -44 0 88 414 88 -414 -44 0 0 -414 -88 0zm0 207m-22 207m22 207m88 0m22 -207m-22 -207m-44 -207"/>
  <rect class="fil5 str2" x="6953" y="1034" width="687.127" height="70.1142"/>
  <rect class="fil5 str2" x="6955" y="1172" width="687.127" height="70.1142"/>
  <rect class="fil5 str2" x="6954" y="1393" width="687.127" height="64.3546"/>
  <path class="fil12 str2" d="M7759 6972l0 -414 44 0 -88 -414 -88 414 44 0 0 414 88 0zm0 -207m22 -207m-22 -207m-88 0m-22 207m22 207m44 207"/>
  <path class="fil12 str2" d="M6374 6989l0 -414 44 0 -88 -414 -88 414 44 0 0 414 88 0zm0 -207m22 -207m-22 -207m-88 0m-22 207m22 207m44 207"/>
  <polygon class="fil1 str0" points="11829,2243 12070,3354 12190,3051 11949,1940 10857,2177 10737,2480 "/>
  <line class="fil0 str1" x1="11829" y1="2243" x2="11949" y2= "1940" />
  <polyline class="fil0 str1" points="10737,2480 10978,3591 12070,3354 "/>
  <path class="fil2 str1" d="M11404 2917c-6,118 -11,215 -11,215 1,0 42,2 42,2 0,-1 22,-426 22,-428 -1,-1 -1,-1 -21,-2 -11,-1 -21,-1 -21,-1 0,0 -5,96 -11,214z"/>
  <path class="fil2 str1" d="M11146 2883l-72 112 112 71c62,40 112,72 113,72 0,1 10,-14 22,-33l21 -33 -78 -51 -79 -50 50 -79 51 -78 -34 -22c-18,-11 -33,-21 -34,-21 0,0 -33,51 -72,112z"/>
  <path class="fil2 str1" d="M11529 2732l-22 33 79 51 79 50 -51 79 -50 78 33 22c19,12 34,21 34,21 1,-1 33,-51 73,-113l71 -112 -112 -71c-61,-40 -112,-72 -112,-72 0,0 -10,16 -22,34z"/>
  <path class="fil2 str1" d="M11404 2917c-6,118 -11,215 -11,215 1,0 42,2 42,2 0,-1 22,-426 22,-428 -1,-1 -1,-1 -21,-2 -11,-1 -21,-1 -21,-1 0,0 -5,96 -11,214z"/>
  <path class="fil2 str1" d="M11146 2883l-72 112 112 71c62,40 112,72 113,72 0,1 10,-14 22,-33l21 -33 -78 -51 -79 -50 50 -79 51 -78 -34 -22c-18,-11 -33,-21 -34,-21 0,0 -33,51 -72,112z"/>
  <path class="fil2 str1" d="M11529 2732l-22 33 79 51 79 50 -51 79 -50 78 33 22c19,12 34,21 34,21 1,-1 33,-51 73,-113l71 -112 -112 -71c-61,-40 -112,-72 -112,-72 0,0 -10,16 -22,34z"/>
  <path class="fil2 str1" d="M15730 3218c-31,114 -56,207 -56,207 0,1 40,12 40,11 1,0 113,-411 113,-413 0,-1 -1,-2 -20,-7 -11,-3 -20,-5 -20,-5 0,0 -26,93 -57,207z"/>
  <path class="fil2 str1" d="M15486 3129l-94 94 94 94c51,52 94,94 94,95 0,0 13,-13 29,-28l28 -28 -66 -66 -66 -66 66 -66 66 -66 -28 -28c-15,-16 -28,-28 -29,-28 0,0 -43,42 -94,93z"/>
  <path class="fil2 str1" d="M15892 3064l-28 28 66 66 66 66 -66 66 -66 66 28 28c15,15 28,28 29,28 0,-1 43,-43 94,-95l94 -94 -94 -94c-51,-51 -94,-93 -94,-93 -1,0 -14,12 -29,28z"/>
  <path class="fil2 str1" d="M16450 8093c-31,114 -56,208 -56,208 1,0 40,11 41,11 0,-1 112,-412 112,-414 0,-1 0,-2 -19,-7 -11,-3 -20,-5 -21,-5 0,0 -25,93 -57,207z"/>
  <path class="fil2 str1" d="M16206 8005l-94 94 94 93c52,52 94,94 95,95 0,0 13,-12 28,-28l28 -28 -66 -66 -66 -66 66 -66 66 -66 -28 -28c-15,-16 -28,-28 -28,-28 -1,0 -43,42 -95,94z"/>
  <path class="fil2 str1" d="M16612 7939l-28 28 66 66 66 66 -66 66 -66 66 29 28c15,16 28,28 28,28 1,-1 43,-43 95,-95l94 -93 -94 -94c-52,-52 -95,-94 -95,-94 0,0 -13,12 -29,28z"/>
 </g>
 <g id="Слой_x0020_2">
  <metadata id="CorelCorpID_1Corel-Layer"/>
  <path class="fil19" d="M12560 8483c-17,0 -30,-13 -31,-29 0,-16 11,-29 27,-30 6,-1 13,-3 9,9 -3,9 4,17 13,13 11,-4 10,2 10,8 0,16 -13,28 -28,29zm40 -31c0,-23 -19,-41 -42,-40 -23,0 -40,19 -40,42 0,22 19,40 41,40 23,0 41,-18 41,-42z"/>
  <path class="fil20" d="M12473 8524c41,74 118,142 196,183 42,-3 83,-6 124,-12 86,-13 168,-35 247,-71 75,-33 143,-77 204,-132 50,-44 93,-96 130,-152l0 0c6,-9 5,-12 -7,-12 -47,0 -95,0 -143,0 -5,0 -9,0 -14,0l-1017 0c-5,0 -10,0 -15,0l-64 0c-6,0 -9,0 -8,9 12,62 36,119 73,171 3,4 7,7 13,7 38,3 77,4 115,2 27,2 54,-2 81,-5 25,-2 49,-6 73,-12 3,8 7,16 12,24zm127 -72c0,24 -18,42 -41,42 -22,0 -41,-18 -41,-40 0,-23 17,-42 40,-42 23,-1 42,17 42,40z"/>
  <path class="fil20" d="M13326 8272c18,13 39,19 60,25 10,3 15,0 19,-8l0 0c20,-36 38,-72 52,-111 4,-12 11,-16 23,-14 28,5 55,1 82,-4 56,-10 104,-35 136,-85 6,-10 7,-15 -6,-21 -65,-28 -130,-26 -194,3 -4,0 -4,-2 -4,-6 0,-9 0,-17 -1,-26 -7,-61 -40,-107 -84,-147 -15,-12 -15,-12 -25,5 -24,44 -29,92 -22,140 4,38 18,73 47,100 7,7 0,9 -3,12 -18,13 -37,23 -58,32 -53,23 -108,32 -166,32 -332,0 -664,0 -996,0 -7,0 -13,0 -20,0 -19,0 -37,0 -55,0 -7,0 -12,1 -12,9 -1,30 -3,60 2,90 1,6 3,8 9,8 21,-1 42,-1 62,-7 27,-3 52,-12 75,-27 5,-3 8,-6 13,0 18,18 41,25 65,30 51,11 102,11 153,6 38,-5 76,-12 112,-27 14,-5 25,-24 36,-22 12,2 23,18 36,25 33,16 68,24 104,26 64,2 126,-4 178,-50 2,-2 4,-7 8,-1 19,23 48,29 75,37 43,11 87,15 132,15 37,0 75,-2 111,-15 16,-3 30,-11 42,-23 5,-5 8,-6 14,-1z"/>
  <path class="fil20" d="M12899 8002c9,0 13,-3 13,-12 -1,-42 -1,-84 0,-126 0,-10 -4,-12 -14,-12 -42,0 -84,0 -125,0 -10,0 -12,3 -12,12 0,21 0,42 0,63 0,21 0,41 0,62 0,9 1,13 11,13 43,0 85,0 127,0zm-2 -25c0,4 1,10 -6,10 -6,0 -4,-6 -4,-10 0,-18 0,-35 0,-53 0,-17 0,-33 0,-50 0,-3 -1,-8 4,-8 7,-1 6,5 6,9 0,34 0,68 0,102zm-27 -112l0 0zm6 9c0,36 0,71 0,106 0,5 -1,9 -7,9 -6,-1 -5,-6 -5,-10 0,-18 0,-35 0,-53 0,-17 0,-34 0,-51 0,-4 -1,-10 6,-10 5,0 6,5 6,9zm-22 2l0 103c0,5 -1,10 -8,10 -6,-1 -4,-6 -5,-10 0,-18 0,-36 0,-53 0,-17 0,-34 1,-50 0,-4 -3,-11 5,-11l0 0c7,1 7,6 7,11zm-23 0l0 103c0,5 -1,10 -7,10 -7,-1 -5,-6 -5,-10 0,-18 0,-36 0,-53 0,-17 0,-34 0,-50 0,-4 -2,-11 6,-11l0 0c7,1 6,6 6,11zm-29 -11l0 0zm7 9c0,36 0,71 0,106 0,5 -2,9 -7,9 -7,-1 -5,-6 -6,-10 0,-18 0,-35 0,-53 0,-17 0,-34 0,-51 1,-4 -1,-10 6,-10 6,0 7,5 7,9zm-30 -8c5,-1 5,4 5,8 0,34 0,69 0,104 0,4 1,8 -4,9 -7,0 -6,-6 -6,-10 0,-17 0,-34 0,-51l0 -52c0,-3 0,-8 5,-8z"/>
  <path class="fil20" d="M12773 7832c42,-1 84,-1 126,-1 10,1 13,-3 12,-13 0,-41 0,-82 0,-124 1,-9 -2,-13 -13,-13 -41,1 -83,1 -125,0 -10,0 -12,4 -12,13 0,21 0,41 0,62l0 0c0,20 0,41 0,62 0,10 2,14 12,14zm119 -16c-7,1 -5,-5 -5,-9 0,-17 0,-34 0,-51l0 0c0,-17 0,-35 0,-52 0,-4 -2,-9 5,-9 5,0 5,5 5,8 0,35 0,70 0,105 0,3 0,8 -5,8zm-16 -112c0,35 0,70 0,104 0,5 0,10 -6,10 -8,0 -6,-6 -6,-10 0,-17 0,-35 0,-52l0 0c0,-17 0,-34 0,-51 0,-4 -2,-11 6,-10 6,0 6,5 6,9zm-22 1c0,34 0,69 0,104 0,4 -1,9 -7,9 -7,0 -6,-5 -6,-9 0,-18 0,-35 0,-53 0,-17 0,-34 1,-52 0,-3 -2,-9 4,-9 7,-1 8,5 8,10zm-23 103c0,5 -1,11 -7,10 -7,-1 -5,-6 -5,-10l0 0c0,-34 0,-69 0,-103 0,-4 -2,-11 6,-10 7,0 6,6 6,11 0,17 0,34 0,51l0 51zm-35 0l0 0zm12 -1c0,4 1,10 -5,11 -8,1 -7,-6 -7,-10 0,-35 0,-69 0,-103 0,-4 -2,-11 6,-10 7,0 6,6 6,11 1,17 0,34 0,51 1,17 1,33 0,50zm-24 -1c0,4 2,10 -4,10l-1 0c-6,0 -5,-6 -5,-9 0,-35 0,-69 0,-103 0,-4 -1,-10 6,-9 5,0 4,5 4,9l1 53c0,16 0,33 -1,49z"/>
  <path class="fil20" d="M13071 8022c-43,1 -85,1 -127,0 -8,0 -12,2 -12,11 0,43 0,86 0,129 0,10 4,11 13,11 20,0 41,0 62,0 21,0 42,0 63,0 8,0 12,-2 12,-11 0,-42 0,-85 0,-128 0,-9 -3,-12 -11,-12zm-120 137l0 0zm6 -112c0,17 0,34 0,51 0,17 0,34 0,52 0,4 0,9 -6,9 -6,0 -6,-4 -6,-9 0,-35 0,-70 0,-105 0,-4 1,-9 7,-8 5,0 5,5 5,10zm10 1c0,-4 -3,-12 6,-12 8,1 7,8 7,13l0 50c0,16 0,32 0,48 0,5 1,12 -7,12 -9,1 -6,-7 -6,-12 0,-33 0,-66 0,-99zm23 101c-1,-34 -1,-69 0,-103 0,-4 -2,-10 5,-10 7,0 7,6 7,11l0 51c0,17 0,33 0,50 0,5 0,11 -6,11l0 0c-8,1 -6,-6 -6,-10zm22 -52c0,-17 0,-34 0,-52 0,-4 -1,-9 6,-9 6,1 6,5 6,10 0,34 0,69 0,104 0,5 -1,9 -6,9 -7,0 -6,-5 -6,-9 0,-18 0,-35 0,-53zm23 52c-1,-17 0,-35 0,-52 0,-17 0,-34 0,-51 0,-4 -2,-10 5,-10 6,0 7,5 7,9 0,35 0,70 0,105 0,4 -1,9 -6,9 -8,1 -6,-6 -6,-10zm22 0c0,-34 0,-68 0,-103 0,-4 -1,-9 5,-10 7,0 7,5 7,10l0 52c0,17 0,34 0,51 0,6 0,11 -7,10 -6,0 -5,-6 -5,-10z"/>
  <path class="fil20" d="M12911 8036c1,-10 -2,-14 -12,-14 -42,1 -84,1 -126,0 -10,0 -12,4 -12,13l0 1c0,41 0,83 0,125 0,10 4,13 13,12 20,0 41,0 61,0 21,0 42,0 63,0 10,1 14,-3 13,-14 0,-41 0,-82 0,-123zm-20 2c7,0 5,5 6,9 0,17 0,35 0,52 0,16 0,33 0,49 0,4 1,10 -6,10 -5,0 -4,-5 -4,-9 0,-34 0,-68 0,-102 0,-4 -1,-9 4,-9zm-15 7l0 106c0,4 -1,9 -7,8l0 0c-6,0 -5,-6 -5,-9 0,-18 0,-35 0,-52l0 -53c0,-4 -1,-8 5,-9 5,0 7,4 7,9zm-22 1l0 103c0,5 -1,11 -8,10l0 0c-6,0 -5,-6 -5,-10 0,-17 0,-34 0,-51 0,-17 0,-35 0,-52 0,-4 -1,-9 5,-10 7,0 8,5 8,10zm-23 -1l0 105c0,4 0,9 -6,9 -8,0 -6,-6 -6,-10 0,-17 0,-35 0,-52 0,-17 0,-34 0,-51 0,-4 -1,-10 5,-10 6,0 7,5 7,9zm-22 2l0 102c0,6 -1,11 -8,10 -6,0 -5,-6 -5,-10l0 -51 0 -1c0,-16 0,-33 0,-49 1,-5 -2,-11 6,-12 6,0 7,6 7,11zm-23 102c0,5 0,11 -7,10 -5,-1 -5,-6 -5,-10 0,-35 0,-69 0,-103 0,-4 0,-9 6,-9 6,0 6,5 6,9 0,18 0,35 0,53 0,17 0,33 0,50z"/>
  <path class="fil20" d="M12739 7927c0,-21 0,-42 0,-62 1,-10 -3,-13 -13,-13 -41,0 -82,0 -123,0l0 0c-10,0 -13,3 -13,13 1,41 1,83 0,125 0,9 3,12 12,12 42,0 84,0 125,0 10,0 12,-3 12,-12 0,-21 0,-42 0,-63zm-19 -61c8,-1 6,6 6,10 0,17 0,34 0,50 0,17 0,33 0,50 0,4 2,11 -6,11 -6,0 -4,-6 -4,-10 -1,-34 -1,-68 0,-101 0,-4 -2,-10 4,-10zm-15 8c1,36 1,71 0,106 0,5 -1,9 -7,9 -5,-1 -5,-5 -5,-9l0 0 0 -53 0 -53c0,-4 -1,-9 6,-9 6,0 6,5 6,9zm-22 0c0,36 0,71 0,106 0,5 -2,9 -7,9 -6,-1 -5,-5 -5,-9 0,-18 0,-36 0,-54 0,-17 0,-35 0,-52 0,-4 -1,-9 6,-9 6,0 6,5 6,9zm-23 106c0,4 -1,9 -6,9 -7,-1 -6,-6 -6,-10l0 -53c0,-17 0,-34 0,-51 0,-4 -1,-10 6,-10 6,0 6,5 6,9 0,35 0,71 0,106zm-22 -1c0,5 0,10 -7,10 -7,-1 -5,-6 -5,-10 0,-18 0,-36 0,-53 0,-17 0,-34 0,-52 0,-4 -1,-9 5,-9 6,0 7,5 7,9 0,35 0,70 0,105zm-23 0c0,5 0,10 -7,10 -6,-1 -5,-6 -5,-10l0 -53 0 -52c0,-4 -1,-9 6,-9 6,0 6,5 6,9l0 105z"/>
  <path class="fil20" d="M12728 8022c-43,1 -85,1 -127,0 -8,0 -11,3 -11,11 1,43 1,87 0,130 0,8 3,10 11,10 42,0 85,0 127,0 8,0 11,-3 11,-11 0,-21 0,-42 0,-63l0 0c0,-21 0,-43 0,-64 0,-8 -2,-13 -11,-13zm-29 14c7,0 7,7 7,12 0,17 0,33 0,50 0,16 0,33 0,49 0,6 1,12 -7,12 -8,0 -6,-6 -6,-11 0,-33 0,-67 0,-101 0,-4 -2,-11 6,-11zm-23 0c7,0 7,6 7,11 0,34 0,68 0,103 0,4 0,9 -6,9 -8,1 -6,-6 -6,-10 0,-17 0,-34 0,-52 0,-16 0,-33 0,-49 0,-5 -2,-11 5,-12zm40 12c0,-4 -1,-10 5,-10 5,0 5,5 5,9l0 102c0,4 0,9 -5,8 -6,0 -5,-4 -5,-8 0,-17 0,-34 0,-51 0,-17 -1,-34 0,-50zm-62 -12c7,1 7,7 7,11 0,18 0,35 0,52 0,16 0,33 0,50 0,5 0,10 -7,10 -8,0 -6,-6 -6,-11 0,-34 0,-67 0,-101 0,-4 -1,-11 6,-11zm-23 0c6,0 7,5 7,10l0 103c0,5 -1,11 -7,10 -7,0 -5,-6 -5,-10l0 -51 0 -52c0,-4 -2,-9 5,-10zm-23 0c7,0 8,5 8,10l0 103c0,5 -1,11 -8,10 -6,0 -5,-6 -5,-10 0,-17 0,-34 0,-51 0,-17 0,-34 0,-52 0,-4 -1,-9 5,-10z"/>
  <path class="fil20" d="M12433 8022l0 0zm135 13c1,-9 -2,-13 -11,-13 -21,1 -41,1 -62,1 -20,0 -41,0 -62,-1 -10,0 -14,2 -13,13 0,42 0,83 0,125 -1,10 2,13 12,13 41,0 83,0 124,0 9,0 13,-2 12,-11 0,-43 0,-85 0,-127zm-23 62l0 0zm5 61c-6,0 -5,-6 -5,-10 0,-17 0,-34 0,-51 0,-17 0,-33 0,-50 0,-4 -1,-9 5,-9 6,0 5,5 5,9 0,34 0,68 0,102 0,4 1,9 -5,9zm-17 -110c0,17 0,33 0,50 0,16 0,33 0,50 0,3 1,9 -5,10 -7,0 -5,-6 -5,-10 -1,-33 -1,-67 0,-101 0,-4 -2,-9 5,-9 6,1 5,6 5,10zm-23 0c0,33 0,67 0,101 0,4 1,9 -5,9 -6,-1 -5,-6 -5,-9 0,-17 0,-34 0,-51 0,-17 0,-34 0,-50 0,-4 -1,-10 5,-10 7,0 5,6 5,10zm-22 -1c0,34 0,68 0,102 0,4 0,9 -5,9 -7,0 -5,-6 -6,-10l1 0c-1,-17 -1,-34 -1,-51l1 -50c0,-4 -2,-9 5,-9 5,0 5,5 5,9zm-21 102c0,4 1,10 -6,10l0 0c-8,1 -6,-6 -6,-10 0,-17 0,-34 0,-51 0,-17 0,-35 0,-52 0,-4 -1,-9 5,-10 7,0 7,5 7,10l0 103zm-22 0c0,5 -1,11 -7,10l0 0c-7,0 -5,-6 -5,-10 0,-17 0,-34 0,-51 0,-17 0,-35 0,-52 0,-4 -2,-9 5,-10 6,0 7,5 7,10l0 103z"/>
  <path class="fil20" d="M12550 7987l0 0zm-5 -114c0,-4 0,-8 6,-7 4,0 4,4 4,7l0 53 0 52c0,4 1,9 -5,9 -5,0 -5,-5 -5,-8l0 -106zm13 129c8,0 10,-3 10,-10 0,-43 0,-86 0,-129 0,-8 -2,-11 -10,-11 -43,0 -85,0 -127,0 -9,0 -11,3 -11,11 0,22 0,43 0,64 0,21 0,42 0,63 0,7 0,12 10,12 43,0 85,0 128,0zm-25 -128l0 53 0 51c0,4 0,9 -5,9 -6,0 -5,-5 -5,-8l0 0c-1,-35 -1,-70 0,-104 0,-4 -1,-10 5,-9 6,0 5,5 5,8zm-23 52c0,17 0,35 0,52 0,4 1,9 -5,9 -5,0 -5,-5 -5,-8 0,-35 0,-70 0,-104 0,-4 -1,-10 6,-9 5,0 4,5 4,8 0,17 0,34 0,52zm-28 61l0 0zm6 -61c0,17 0,34 0,51 0,4 1,10 -6,10 -6,-1 -4,-6 -4,-10 -1,-34 -1,-69 0,-103 0,-3 -1,-8 4,-8 7,-1 6,5 6,9 0,17 0,34 0,51zm-21 53c0,5 0,10 -7,10 -6,-1 -5,-6 -5,-10 0,-18 0,-36 0,-53 0,-17 0,-34 0,-52 0,-4 -1,-9 6,-9 6,0 6,5 6,9l0 105zm-29 10l0 0zm7 -115c0,36 0,71 0,106 0,5 -2,9 -7,9 -7,-1 -5,-6 -5,-10 0,-18 0,-35 0,-53 0,-17 0,-34 0,-51 0,-4 -2,-10 5,-10 6,0 7,5 7,9z"/>
  <path class="fil20" d="M12385 8022c-41,1 -83,1 -124,0 -8,0 -12,2 -12,12l0 0c0,42 0,85 0,127 0,11 4,12 13,12 21,0 41,0 61,0 21,0 41,0 61,0 10,1 14,-2 14,-12 -1,-42 -1,-84 0,-126 0,-9 -3,-13 -13,-13zm-45 25c0,34 0,67 0,101 0,4 1,10 -6,9 -5,0 -5,-5 -5,-9l0 -51 0 -50c0,-4 0,-9 6,-9 6,1 5,6 5,9zm-23 102c0,4 0,8 -5,8l0 0c-5,0 -5,-4 -5,-8 0,-34 0,-68 0,-103 0,-3 0,-8 5,-8 5,0 5,5 5,8 0,18 0,36 0,53l0 50zm-22 0c0,4 0,9 -6,8 -5,0 -5,-4 -5,-8l0 -103c0,-3 0,-8 6,-8 5,0 5,5 5,9 0,17 0,34 0,51 0,17 0,34 0,51zm-23 -102c0,34 0,68 0,101 0,4 1,9 -4,9 -7,1 -6,-5 -6,-9 0,-17 0,-34 0,-51 0,-17 0,-33 0,-50 0,-3 -1,-8 5,-9 6,0 5,5 5,9zm80 103l0 -103c0,-4 -1,-9 5,-9 6,0 5,6 5,10 0,17 0,34 0,51 0,17 0,33 0,50 0,3 1,8 -5,8 -5,1 -5,-4 -5,-7l0 0zm28 7c-6,1 -5,-4 -5,-8 -1,-34 -1,-68 0,-102 0,-4 -1,-9 4,-9 7,0 5,6 5,10 1,16 0,33 0,50 0,17 1,34 0,51 0,3 1,8 -4,8z"/>
  <path class="fil19" d="M12473 8524c-37,9 -74,14 -111,17 -52,3 -104,4 -156,1 0,5 3,7 5,9 45,43 94,80 152,106 97,44 199,54 304,50 1,0 2,0 2,0 -78,-41 -155,-109 -196,-183z"/>
  <path class="fil21" d="M12529 8454c1,16 14,29 31,29 15,-1 28,-13 28,-29 0,-6 1,-12 -10,-8 -9,4 -16,-4 -13,-13 4,-12 -3,-10 -9,-9 -16,1 -27,14 -27,30z"/>
  <path class="fil22" d="M12779 8159c7,1 7,-5 7,-10 0,-17 0,-33 0,-50 0,-18 0,-35 0,-53 0,-4 0,-9 -6,-9 -6,0 -6,5 -6,9 0,34 0,68 0,103 0,4 0,9 5,10l0 0z"/>
  <path class="fil22" d="M12996 8159c6,0 6,-6 6,-11 0,-17 0,-33 0,-50 0,-17 0,-34 0,-51 0,-5 0,-11 -7,-11 -7,0 -5,6 -5,10 -1,34 -1,69 0,103 0,4 -2,11 6,10l0 0z"/>
  <path class="fil22" d="M12869 8159c6,1 7,-4 7,-8 0,-36 0,-71 0,-106 0,-5 -2,-9 -7,-9 -6,1 -5,5 -5,9 0,18 0,35 0,53 0,17 0,34 0,52 0,3 -1,9 5,9l0 0z"/>
  <path class="fil22" d="M12825 8159c6,0 6,-5 6,-9 0,-35 0,-70 0,-105 0,-4 -1,-9 -7,-9 -6,0 -5,6 -5,10 0,17 0,34 0,51 0,17 0,35 0,52 0,4 -2,10 6,10z"/>
  <path class="fil22" d="M12784 7874c0,-4 0,-9 -5,-8 -5,0 -5,5 -5,8 0,17 0,34 0,52 0,17 0,34 0,51 0,4 -1,10 6,10 5,-1 4,-5 4,-9 0,-35 0,-70 0,-104z"/>
  <path class="fil22" d="M12846 8159c7,1 8,-5 8,-10 0,-34 0,-68 0,-103 0,-5 -1,-10 -8,-10 -6,1 -5,6 -5,10 0,17 0,35 0,52 0,17 0,34 0,51 0,4 -1,10 5,10l0 0z"/>
  <path class="fil22" d="M12796 8098c0,17 0,34 0,51 0,4 -1,10 5,10 7,1 8,-4 8,-10 0,-34 0,-68 0,-102 0,-5 -1,-11 -7,-11 -8,1 -5,7 -6,12 0,16 0,33 0,49l0 1z"/>
  <path class="fil22" d="M13012 8150c0,4 -1,9 6,9 5,0 6,-4 6,-9 0,-35 0,-70 0,-104 0,-5 0,-9 -6,-10 -7,0 -6,5 -6,9 0,18 0,35 0,52 0,18 0,35 0,53z"/>
  <path class="fil22" d="M12608 7989c7,0 7,-5 7,-10 0,-35 0,-70 0,-105 0,-4 0,-9 -6,-9 -7,0 -6,5 -6,9 0,18 0,35 0,52 0,17 0,35 0,53 0,4 -1,9 5,10l0 0z"/>
  <path class="fil22" d="M12693 7980c0,4 0,8 5,9 6,0 7,-4 7,-9 1,-35 1,-70 0,-106 0,-4 0,-9 -6,-9 -7,0 -6,5 -6,9 0,18 0,36 0,53 0,18 0,36 0,53l0 0z"/>
  <path class="fil22" d="M12608 8036c-6,1 -5,6 -5,10 0,18 0,35 0,52 0,17 0,34 0,51 0,4 -1,10 5,10 7,1 8,-5 8,-10 0,-34 0,-69 0,-103 0,-5 -1,-10 -8,-10z"/>
  <path class="fil22" d="M12631 7989c7,0 7,-5 7,-10 0,-35 0,-70 0,-105 0,-4 -1,-9 -7,-9 -6,0 -5,5 -5,9 0,18 0,35 0,52 0,17 0,35 0,53 0,4 -2,9 5,10l0 0z"/>
  <path class="fil22" d="M12671 7980c0,4 -1,8 5,9 5,0 7,-4 7,-9 0,-35 0,-70 0,-106 0,-4 0,-9 -6,-9 -7,0 -6,5 -6,9 0,17 0,35 0,52 0,18 0,36 0,54z"/>
  <path class="fil22" d="M12653 7989c6,0 7,-4 7,-9 0,-35 0,-71 0,-106 0,-4 0,-9 -6,-9 -7,0 -6,6 -6,10 0,17 0,34 0,51 0,18 0,35 0,53 0,4 -1,9 6,10l-1 0z"/>
  <path class="fil22" d="M12819 7808c0,4 -2,9 5,10 6,1 7,-5 7,-10 0,-17 0,-34 0,-51 0,-17 0,-34 0,-51 0,-5 1,-11 -6,-11 -8,-1 -6,6 -6,10 0,34 0,69 0,103l0 0z"/>
  <path class="fil22" d="M12897 7875c0,-4 1,-10 -6,-9 -5,0 -4,5 -4,8 0,17 0,33 0,50 0,18 0,35 0,53 0,4 -2,10 4,10 7,0 6,-6 6,-10 0,-34 0,-68 0,-102l0 0z"/>
  <path class="fil22" d="M12951 8159c6,0 6,-5 6,-9 0,-18 0,-35 0,-52 0,-17 0,-34 0,-51 0,-5 0,-10 -5,-10 -6,-1 -7,4 -7,8 0,35 0,70 0,105 0,5 0,9 6,9l0 0z"/>
  <path class="fil22" d="M12870 7865c-7,0 -6,6 -6,10 0,17 0,34 0,51 0,18 0,35 0,53 0,4 -1,9 5,10 6,0 7,-4 7,-9 0,-35 0,-70 0,-106 0,-4 -1,-9 -6,-9l0 0z"/>
  <path class="fil22" d="M12802 7865c-7,0 -5,6 -6,10 0,17 0,34 0,51 0,18 0,35 0,53 1,4 -1,9 6,10 5,0 7,-4 7,-9 0,-35 0,-70 0,-106 0,-4 -1,-9 -7,-9l0 0z"/>
  <path class="fil22" d="M12887 7756c0,17 0,34 0,51 0,4 -2,10 5,9 5,0 5,-5 5,-8 0,-35 0,-70 0,-105 0,-3 0,-8 -5,-8 -7,0 -5,5 -5,9 0,17 0,35 0,52l0 0z"/>
  <path class="fil22" d="M12825 7865c-8,0 -6,7 -6,11 0,16 0,33 0,50 0,17 0,35 0,53 0,4 -2,9 5,10 6,0 7,-5 7,-10 0,-34 0,-69 0,-103 0,-5 1,-10 -6,-11l0 0z"/>
  <path class="fil22" d="M12847 7865c-8,0 -5,7 -5,11 -1,16 -1,33 -1,50 0,17 0,35 0,53 1,4 -1,9 5,10 7,0 8,-5 8,-10 0,-34 0,-69 0,-103 0,-5 0,-10 -7,-11l0 0z"/>
  <path class="fil22" d="M12887 8149c0,4 -1,9 4,9 7,0 6,-6 6,-10 0,-16 0,-33 0,-49 0,-17 0,-35 0,-52 -1,-4 1,-9 -6,-9 -5,0 -4,5 -4,9 0,34 0,68 0,102l0 0z"/>
  <path class="fil22" d="M12780 7816c6,0 4,-6 4,-10 1,-16 1,-33 1,-49 0,-18 0,-36 -1,-53 0,-4 1,-9 -4,-9 -7,-1 -6,5 -6,9 0,34 0,68 0,103 0,3 -1,9 5,9l1 0z"/>
  <path class="fil22" d="M12796 7808c0,4 -1,11 7,10 6,-1 5,-7 5,-11 1,-17 1,-33 0,-50 0,-17 1,-34 0,-51 0,-5 1,-11 -6,-11 -8,-1 -6,6 -6,10 0,34 0,68 0,103l0 0z"/>
  <path class="fil22" d="M12967 8148c0,4 -3,12 6,11 8,0 7,-7 7,-12 0,-16 0,-32 0,-48 0,-17 0,-33 0,-50 0,-5 1,-12 -7,-13 -9,0 -6,8 -6,12 0,33 0,66 0,99l0 1z"/>
  <path class="fil22" d="M12841 7756c0,17 0,35 0,53 0,4 -1,9 6,9 6,0 7,-5 7,-9 0,-35 0,-70 0,-104 0,-5 -1,-11 -8,-10 -6,0 -4,6 -4,9 -1,18 -1,35 -1,52l0 0z"/>
  <path class="fil22" d="M12864 7756c0,17 0,35 0,52 0,4 -2,10 6,10 6,0 6,-5 6,-10 0,-34 0,-69 0,-104 0,-4 0,-9 -6,-9 -8,-1 -6,6 -6,10 0,17 0,34 0,51l0 0z"/>
  <path class="fil22" d="M12631 8036c-7,1 -5,6 -5,10 0,17 0,35 0,52 0,17 0,34 0,51 0,4 -2,10 5,10 6,1 7,-5 7,-10 0,-34 0,-68 0,-103 0,-5 -1,-10 -7,-10z"/>
  <path class="fil22" d="M12716 7977c0,4 -2,10 4,10 8,0 6,-7 6,-11 0,-17 0,-33 0,-50 0,-16 0,-33 0,-50 0,-4 2,-11 -6,-10 -6,0 -4,6 -4,10 -1,33 -1,67 0,101z"/>
  <path class="fil22" d="M12438 8159c6,1 7,-5 7,-10 0,-34 0,-68 0,-103 0,-5 -1,-10 -7,-10 -7,1 -5,6 -5,10 0,17 0,35 0,52 0,17 0,34 0,51 0,4 -2,10 5,10l0 0z"/>
  <path class="fil22" d="M12375 8149c0,4 -1,9 5,8 5,0 4,-5 4,-8 1,-17 0,-34 0,-51 0,-17 1,-34 0,-50 0,-4 2,-10 -5,-10 -5,0 -4,5 -4,9 -1,34 -1,68 0,102l0 0z"/>
  <path class="fil22" d="M12461 8159c7,0 6,-6 6,-10 0,-35 0,-69 0,-103 0,-5 0,-10 -7,-10 -6,1 -5,6 -5,10 0,17 0,35 0,52 0,17 0,34 0,51 0,4 -2,11 6,10l0 0z"/>
  <path class="fil22" d="M12477 8148c1,4 -1,10 6,10 5,0 5,-5 5,-9 0,-34 0,-68 0,-102 0,-4 0,-9 -5,-9 -7,0 -5,5 -5,9 -1,17 -1,33 -1,50 0,17 0,34 1,51l-1 0z"/>
  <path class="fil22" d="M12352 8150c0,3 0,8 5,7 6,0 5,-5 5,-8 0,-17 0,-33 0,-50 0,-17 0,-34 0,-51 0,-4 1,-10 -5,-10 -6,0 -5,5 -5,9 0,34 0,68 0,103l0 0z"/>
  <path class="fil22" d="M12523 8148c0,4 -2,10 5,10 6,-1 5,-7 5,-10 0,-17 0,-34 0,-50 0,-17 0,-33 0,-50 0,-4 1,-9 -5,-10 -7,0 -5,5 -5,9 -1,34 -1,68 0,101z"/>
  <path class="fil22" d="M12500 8098c0,17 0,34 0,51 0,3 -1,8 5,9 6,0 5,-5 5,-9 0,-34 0,-68 0,-101 0,-4 2,-10 -5,-10 -6,0 -5,6 -5,10 0,16 0,33 0,50l0 0z"/>
  <path class="fil22" d="M13405 8289c-4,8 -9,11 -19,8 -21,-6 -42,-12 -60,-25 -6,-5 -9,-4 -14,1 -12,12 -26,20 -42,23 -36,13 -74,15 -111,15 -45,0 -89,-4 -132,-15 -27,-8 -56,-14 -75,-37 -4,-6 -6,-1 -8,1 -52,46 -114,52 -178,50 -36,-2 -71,-10 -104,-26 -13,-7 -24,-23 -36,-25 -11,-2 -22,17 -36,22 -36,15 -74,22 -112,27 -51,5 -102,5 -153,-6 -24,-5 -47,-12 -65,-30 -5,-6 -8,-3 -13,0 -23,15 -48,24 -75,27 -20,6 -41,6 -62,7 -6,0 -8,-2 -9,-8 -5,-30 -3,-60 -2,-90 0,-8 5,-9 12,-9 18,0 36,0 55,0 7,0 13,0 20,0 332,0 664,0 996,0 58,0 113,-9 166,-32 21,-9 40,-19 58,-32 3,-3 10,-5 3,-12 -29,-27 -43,-62 -47,-100 -7,-48 -2,-96 22,-140 10,-17 10,-17 25,-5 44,40 77,86 84,147 1,9 1,17 1,26 0,4 0,6 4,6 64,-29 129,-31 194,-3 13,6 12,11 6,21 -32,50 -80,75 -136,85 -27,5 -54,9 -82,4 -12,-2 -19,2 -23,14 -14,39 -32,75 -52,111l0 0zm-31 51c-37,56 -80,108 -130,152 -61,55 -129,99 -204,132 -79,36 -161,58 -247,71 -42,6 -84,9 -126,12l0 0c-105,4 -207,-6 -304,-50 -58,-26 -107,-63 -152,-106 -2,-2 -5,-4 -5,-9 52,3 104,2 156,-1 40,-3 80,-9 119,-19l0 0c5,-2 10,-4 15,-5 8,-3 13,-8 10,-17 -2,-9 -9,-10 -18,-8 -32,11 -66,17 -100,20 -27,3 -54,7 -81,5 -38,2 -77,1 -115,-2 -6,0 -10,-3 -13,-7 -37,-52 -61,-109 -73,-171 -1,-9 2,-9 8,-9 22,0 43,0 64,0 5,0 10,0 15,0 339,0 678,0 1017,0 5,0 9,0 14,0 48,0 96,0 143,0 12,0 13,3 7,12l0 0zm-1125 -306c0,-10 4,-12 12,-12 41,1 83,1 124,0 10,0 13,4 13,13 -1,42 -1,84 0,126 0,10 -4,13 -14,12 -20,0 -40,0 -61,0 -20,0 -40,0 -61,0 -9,0 -13,-1 -13,-12 0,-42 0,-85 0,-127l0 0zm184 -12c21,1 42,1 62,1 21,0 41,0 62,-1 9,0 12,4 11,13 0,42 0,84 0,127 1,9 -3,11 -12,11 -41,0 -83,0 -124,0 -10,0 -13,-3 -12,-13 0,-42 0,-83 0,-125 -1,-11 3,-13 13,-13l0 0zm-2 -170c42,0 84,0 127,0 8,0 10,3 10,11 0,43 0,86 0,129 0,7 -2,10 -10,10 -43,0 -85,0 -128,0 -10,0 -10,-5 -10,-12 0,-21 0,-42 0,-63 0,-21 0,-42 0,-64 0,-8 2,-11 11,-11zm308 247c0,21 0,42 0,63 0,8 -3,11 -11,11 -42,0 -85,0 -127,0 -8,0 -11,-2 -11,-10 1,-43 1,-87 0,-130 0,-8 3,-11 11,-11 42,1 84,1 127,0 9,0 11,5 11,13 0,21 0,43 0,64l0 0zm-136 -247c41,0 82,0 123,0 10,0 14,3 13,13 0,20 0,41 0,62 0,21 0,42 0,63 0,9 -2,12 -12,12 -41,0 -83,0 -125,0 -9,0 -12,-3 -12,-12 1,-42 1,-84 0,-125 0,-10 3,-13 13,-13l0 0zm158 183c0,-9 2,-13 12,-13 42,1 84,1 126,0 10,0 13,4 12,14 0,41 0,82 0,123 1,11 -3,15 -13,14 -21,0 -42,0 -63,0 -20,0 -41,0 -61,0 -9,1 -13,-2 -13,-12 0,-42 0,-84 0,-125l0 -1zm0 -279c0,-21 0,-41 0,-62 0,-9 2,-13 12,-13 42,1 84,1 125,0 11,0 14,4 13,13 0,42 0,83 0,124 1,10 -2,14 -12,13 -42,0 -84,0 -126,1 -10,0 -12,-4 -12,-14 0,-21 0,-42 0,-62l0 0zm151 234c0,9 -4,12 -13,12 -42,0 -84,0 -127,0 -10,0 -11,-4 -11,-13 0,-21 0,-41 0,-62 0,-21 0,-42 0,-63 0,-9 2,-12 12,-12 41,0 83,0 125,0 10,0 14,2 14,12 -1,42 -1,84 0,126zm20 43c0,-9 4,-11 12,-11 42,1 84,1 127,0 8,0 11,3 11,12 0,43 0,86 0,128 0,9 -4,11 -12,11 -21,0 -42,0 -63,0 -21,0 -42,0 -62,0 -9,0 -13,-1 -13,-11 0,-43 0,-86 0,-129l0 0zm535 194c9,-27 24,-34 53,-35 96,-2 174,-39 218,-131 1,-3 2,-6 2,-8l0 -1c0,-3 -2,-5 -7,-8 -62,-38 -128,-45 -198,-30 -6,1 -13,7 -15,-6 -11,-57 -42,-103 -84,-143 -14,-13 -27,-27 -45,-36 -15,15 -29,32 -38,52 -33,79 -33,158 12,234 6,9 3,11 -4,15 -20,10 -40,18 -61,24 -58,19 -117,15 -176,16 -12,0 -15,-3 -15,-15 1,-48 0,-96 1,-143 0,-15 -5,-18 -18,-18 -44,1 -87,1 -131,1 -26,0 -22,3 -22,-22 0,-102 0,-204 0,-306 0,-10 -2,-15 -14,-15 -59,1 -119,1 -179,0 -11,0 -14,4 -14,15 1,47 0,93 1,140 0,14 -4,18 -18,18 -103,-1 -206,-1 -309,-1 -13,0 -16,4 -15,16 0,47 0,94 0,142 0,10 -3,13 -13,13 -47,0 -95,0 -142,0 -12,-1 -16,2 -16,15 1,49 0,98 0,147 1,10 -2,13 -13,13 -40,-1 -80,0 -121,0 -7,0 -13,0 -13,10 -3,36 -5,71 -2,106 1,19 2,19 -17,15 -38,-7 -72,-22 -99,-50 -3,27 -10,38 -35,50 -25,13 -52,18 -78,27 73,0 146,0 219,0 12,0 16,4 18,15 14,77 45,145 95,205 98,117 228,172 378,185 115,10 230,-1 342,-29 220,-54 394,-172 514,-365 6,-9 11,-11 21,-11 95,0 191,0 286,0 6,0 11,0 17,0 -18,-7 -37,-10 -54,-16 -29,-11 -60,-20 -59,-61 -10,8 -17,15 -26,21 -48,31 -100,36 -155,33 -9,0 -7,-4 -4,-10 11,-22 25,-44 33,-67l0 -1z"/>
  <path class="fil22" d="M12262 8148c0,4 -1,10 6,9 5,0 4,-5 4,-9 0,-33 0,-67 0,-101 0,-4 1,-9 -5,-9 -6,1 -5,6 -5,9 0,17 0,33 0,50 0,17 0,34 0,51z"/>
  <path class="fil22" d="M12329 8149c0,3 0,8 5,8 7,1 6,-5 6,-9 0,-34 0,-67 0,-101 0,-3 1,-8 -5,-9 -6,0 -6,5 -6,9 0,17 0,34 0,50 0,17 0,34 0,51l0 1z"/>
  <path class="fil22" d="M12289 8157c6,1 6,-4 6,-8 0,-17 0,-34 0,-51 0,-17 0,-34 0,-51 0,-4 0,-9 -5,-9 -6,0 -6,5 -6,8 0,35 0,69 0,103 0,4 0,8 5,8z"/>
  <path class="fil22" d="M12654 8036c-7,0 -6,7 -6,11 0,34 0,67 0,101 0,5 -2,11 6,11 7,0 7,-5 7,-10 0,-17 0,-34 0,-50 0,-17 0,-34 0,-52 0,-4 0,-10 -7,-11l0 0z"/>
  <path class="fil22" d="M12312 8157c5,0 5,-4 5,-8 0,-16 0,-33 0,-50 0,-17 0,-35 0,-53 0,-3 0,-8 -5,-8 -5,0 -5,5 -5,8 0,35 0,69 0,103 0,4 0,8 5,8l0 0z"/>
  <path class="fil22" d="M12721 8038c-7,0 -5,6 -5,10 -1,16 0,33 0,50 0,17 0,34 0,51 0,4 -1,8 5,8 5,1 5,-4 5,-8 0,-34 0,-68 0,-102 0,-4 0,-9 -5,-9l0 0z"/>
  <path class="fil22" d="M13041 8159c5,0 6,-5 6,-9 0,-35 0,-70 0,-105 0,-4 -1,-9 -7,-9 -7,0 -5,6 -5,10 0,17 0,34 0,51 0,17 -1,35 0,52 0,4 -2,11 6,10z"/>
  <path class="fil22" d="M12550 7987c6,0 5,-5 5,-9 0,-17 0,-35 0,-52 0,-18 0,-35 0,-53 0,-3 0,-7 -4,-7 -6,-1 -6,3 -6,7 0,35 0,70 0,106 0,3 0,8 5,8l0 0z"/>
  <path class="fil22" d="M12706 8048c0,-5 0,-12 -7,-12 -8,0 -6,7 -6,11 0,34 0,68 0,101 0,5 -2,11 6,11 8,0 7,-6 7,-12 0,-16 0,-33 0,-49 0,-17 0,-33 0,-50l0 0z"/>
  <path class="fil22" d="M12545 8097c0,17 0,34 0,51 0,4 -1,10 5,10 6,0 5,-5 5,-9 0,-34 0,-68 0,-102 0,-4 1,-9 -5,-9 -6,0 -5,5 -5,9 0,17 0,33 0,50l0 0z"/>
  <path class="fil22" d="M12523 7979c0,3 -1,8 5,8 5,0 5,-5 5,-9 0,-17 0,-34 0,-51 0,-17 0,-35 0,-53 0,-3 1,-8 -5,-8 -6,-1 -5,5 -5,9 -1,34 -1,69 0,104l0 0z"/>
  <path class="fil22" d="M12676 8036c-7,1 -5,7 -5,12 0,16 0,33 0,49 0,18 0,35 0,52 0,4 -2,11 6,10 6,0 6,-5 6,-9 0,-35 0,-69 0,-103 0,-5 0,-11 -7,-11z"/>
  <path class="fil22" d="M13062 8159c7,1 7,-4 7,-10 0,-17 0,-34 0,-51 0,-17 0,-34 0,-52 0,-5 0,-10 -7,-10 -6,1 -5,6 -5,10 0,35 0,69 0,103 0,4 -1,10 5,10z"/>
  <path class="fil22" d="M12438 7989c5,0 7,-4 7,-9 0,-35 0,-70 0,-106 0,-4 -1,-9 -7,-9 -7,0 -5,6 -5,10 0,17 0,34 0,51 0,18 0,35 0,53 0,4 -2,9 5,10l0 0z"/>
  <path class="fil22" d="M12460 7989c7,0 7,-5 7,-10 0,-35 0,-70 0,-105 0,-4 0,-9 -6,-9 -7,0 -6,5 -6,9 0,18 0,35 0,52 0,17 0,35 0,53 0,4 -1,9 5,10z"/>
  <path class="fil22" d="M12500 7979c0,3 0,8 5,8 6,0 5,-5 5,-9 0,-17 0,-35 0,-52 0,-18 0,-35 0,-52 0,-3 1,-8 -4,-8 -7,-1 -6,5 -6,9 0,34 0,69 0,104z"/>
  <path class="fil22" d="M12482 7987c7,0 6,-6 6,-10 0,-17 0,-34 0,-51 0,-17 0,-34 0,-51 0,-4 1,-10 -6,-9 -5,0 -4,5 -4,8 -1,34 -1,69 0,103 0,4 -2,9 4,10l0 0z"/>
  <path class="fil19" d="M12539 11206c-16,0 -30,-12 -30,-29 -1,-16 11,-29 26,-30 6,0 14,-3 10,9 -4,10 3,17 13,14 11,-5 9,1 10,7 -1,16 -13,29 -29,29zm40 -30c0,-24 -19,-42 -42,-41 -23,1 -40,19 -40,42 0,22 19,41 41,41 24,-1 42,-19 41,-42z"/>
  <path class="fil20" d="M12452 11247c41,74 118,143 197,183 41,-3 82,-5 123,-11 86,-13 169,-36 248,-71 74,-34 143,-77 204,-132 50,-45 92,-97 129,-152l0 0c6,-9 6,-13 -6,-13 -48,1 -96,1 -143,1 -5,0 -10,-1 -15,-1l-1017 0c-5,0 -9,1 -14,1l-64 -1c-6,0 -10,1 -8,9 11,63 35,119 72,171 4,5 7,7 13,7 39,3 77,4 115,3 28,1 55,-3 82,-5 24,-3 48,-7 72,-13 4,8 8,16 12,24zm127 -71c1,23 -17,41 -41,42 -22,0 -41,-19 -41,-41 0,-23 17,-41 40,-42 23,-1 42,17 42,41z"/>
  <path class="fil20" d="M13305 10995c18,13 39,19 61,25 9,3 14,1 19,-8l0 0c19,-36 37,-72 51,-110 5,-13 11,-17 24,-15 27,5 54,1 81,-3 56,-10 104,-35 136,-85 6,-10 7,-16 -6,-22 -65,-27 -129,-25 -194,4 -4,0 -4,-3 -4,-7 0,-8 0,-17 -1,-25 -6,-62 -39,-108 -84,-147 -14,-13 -15,-13 -25,4 -24,44 -28,92 -22,141 5,38 19,72 47,99 7,7 1,10 -3,12 -18,13 -37,24 -57,32 -53,23 -109,32 -166,32 -332,0 -664,0 -996,0 -7,0 -14,1 -21,1 -18,0 -37,0 -55,-1 -7,0 -12,1 -12,9 -1,30 -3,60 2,90 1,6 4,8 9,8 21,0 42,0 62,-7 27,-3 52,-12 75,-26 5,-3 8,-6 13,-1 18,18 41,25 65,30 51,12 102,12 153,6 39,-4 77,-11 113,-26 14,-6 24,-25 35,-23 12,3 23,18 37,25 32,17 67,25 103,26 64,3 127,-4 178,-49 2,-2 4,-7 8,-2 20,24 48,30 75,37 43,11 88,16 132,15 38,0 75,-2 111,-15 16,-3 30,-11 42,-22 5,-5 8,-6 14,-2z"/>
  <path class="fil20" d="M12879 10726c8,0 12,-4 12,-13 0,-41 0,-83 0,-125 0,-10 -4,-13 -14,-13 -41,1 -83,1 -125,0 -10,0 -12,3 -12,12 1,21 0,42 0,63 0,21 1,42 0,63 0,8 1,13 11,13 43,-1 85,-1 128,0zm-3 -26c0,4 1,10 -5,10 -7,0 -5,-6 -5,-10 0,-17 0,-35 0,-53 0,-16 0,-33 0,-49 0,-4 -1,-9 4,-9 7,-1 6,5 6,9 0,34 0,68 0,102zm-27 -111l0 0zm6 9c1,35 1,70 0,106 0,4 -1,9 -7,8 -6,0 -5,-6 -5,-10 0,-17 0,-35 0,-53 0,-17 0,-34 0,-51 0,-4 -1,-9 6,-9 6,0 6,4 6,9zm-22 2l0 102c0,5 -1,11 -7,10 -7,0 -5,-6 -5,-10 0,-18 0,-35 0,-53 0,-17 0,-33 0,-50 0,-4 -2,-11 6,-10l0 0c6,0 6,6 6,11zm-23 0l0 102c0,5 0,11 -7,10 -6,0 -5,-6 -5,-10 0,-18 0,-35 0,-53 0,-17 0,-33 0,-50 0,-4 -2,-11 6,-10l0 0c7,0 6,6 6,11zm-29 -11l0 0zm7 9c0,35 0,70 0,106 0,4 -2,9 -7,8 -7,0 -5,-6 -5,-10 0,-17 0,-35 0,-53 0,-17 0,-34 0,-51 0,-4 -2,-9 5,-9 6,0 7,4 7,9zm-30 -9c6,0 6,4 6,8 0,35 0,70 0,104 0,4 0,9 -5,9 -7,0 -5,-6 -5,-10 -1,-17 0,-34 0,-51l0 -51c0,-4 -1,-9 4,-9z"/>
  <path class="fil20" d="M12752 10555c42,-1 84,-1 126,0 10,0 13,-4 13,-13 -1,-42 -1,-83 0,-124 0,-10 -3,-14 -13,-13 -42,0 -84,0 -126,0 -10,-1 -12,4 -12,13 1,20 0,40 0,61l0 0c0,21 1,42 0,63 0,9 2,13 12,13zm119 -15c-7,0 -5,-6 -5,-10 0,-17 0,-34 0,-51l0 0c0,-17 0,-34 0,-51 0,-4 -2,-10 5,-10 6,0 5,5 5,9 0,35 0,69 0,104 0,4 1,9 -5,9zm-16 -112c0,34 0,69 0,104 0,4 0,9 -6,9 -8,1 -6,-6 -6,-10 0,-17 0,-34 0,-51l0 0c0,-17 0,-34 0,-52 0,-4 -2,-10 6,-10 6,0 6,5 6,10zm-22 0c0,35 0,70 0,104 0,5 -1,9 -7,9 -6,0 -5,-5 -5,-9 0,-18 0,-35 0,-53 0,-17 0,-34 0,-51 0,-4 -2,-10 5,-10 7,0 7,5 7,10zm-23 104c0,5 0,10 -7,9 -6,0 -5,-6 -5,-10l0 0c0,-34 0,-68 0,-103 0,-4 -2,-10 6,-10 7,0 6,6 6,11 0,17 0,34 0,51l0 52zm-34 -1l0 0zm12 -1c0,5 1,11 -6,11 -8,1 -6,-6 -6,-10 0,-34 0,-68 0,-103 0,-4 -2,-10 6,-10 6,0 6,6 6,11 0,17 0,34 0,51 0,17 0,34 0,50zm-24 0c0,4 1,9 -5,10l0 0c-7,0 -5,-6 -5,-10 -1,-34 -1,-68 0,-103 0,-3 -1,-9 5,-9 6,1 5,6 5,9l0 53c0,17 0,33 0,50z"/>
  <path class="fil20" d="M13050 10746c-43,0 -85,0 -127,0 -8,0 -12,2 -12,11 0,42 1,85 0,128 0,10 5,12 13,12 21,-1 42,-1 63,-1 20,0 41,0 62,1 8,0 12,-3 12,-11 0,-43 0,-86 0,-129 0,-8 -3,-11 -11,-11zm-119 136l0 0zm5 -112c0,17 0,34 0,51 0,18 0,35 0,52 0,4 0,9 -5,9 -6,1 -7,-4 -7,-9 0,-34 0,-69 0,-104 0,-5 1,-9 7,-9 6,1 5,6 5,10zm10 2c0,-5 -2,-13 7,-12 7,0 6,7 6,12l0 50c0,16 0,32 0,48 0,5 2,12 -6,13 -9,0 -7,-8 -7,-12 0,-33 0,-66 0,-99zm23 100c0,-34 0,-68 0,-103 0,-4 -1,-9 5,-9 7,0 7,5 7,10l0 52c0,16 0,33 0,49 0,5 1,11 -6,12l0 0c-8,0 -6,-6 -6,-11zm22 -52c0,-17 0,-34 0,-51 0,-4 -1,-10 6,-9 6,0 7,5 7,9 0,35 0,70 0,105 0,4 -1,9 -7,9 -7,0 -6,-5 -6,-10 0,-17 0,-35 0,-53zm23 52c0,-17 0,-34 0,-51 0,-18 0,-35 0,-52 0,-4 -1,-9 5,-9 6,0 7,4 7,9 0,35 0,69 0,104 0,5 0,10 -6,10 -8,0 -6,-7 -6,-11zm23 1c-1,-35 -1,-69 0,-103 0,-4 -2,-10 4,-10 7,-1 8,5 8,10l0 51c0,17 0,35 0,52 0,5 -1,10 -8,10 -6,-1 -4,-6 -4,-10z"/>
  <path class="fil20" d="M12891 10759c0,-9 -3,-13 -13,-13 -42,0 -84,0 -125,0 -11,0 -13,4 -13,13l0 0c0,42 1,84 0,125 0,11 4,13 13,13 20,-1 41,0 61,0 21,0 42,-1 63,0 11,0 14,-4 14,-14 -1,-42 -1,-83 0,-124zm-21 2c7,0 6,6 6,10 0,17 0,34 0,51 0,17 0,33 0,50 0,3 1,9 -5,9 -6,0 -5,-5 -5,-8 0,-35 0,-69 0,-103 0,-3 -1,-8 4,-9zm-15 7l0 106c0,5 -1,9 -7,9l0 0c-6,-1 -5,-6 -5,-10 0,-17 0,-34 0,-51l0 -53c0,-4 0,-9 5,-9 5,-1 7,3 7,8zm-22 2l0 103c0,5 -1,10 -7,10l0 0c-7,-1 -5,-7 -5,-10 0,-18 0,-35 0,-52 0,-17 0,-34 0,-51 0,-4 -2,-10 5,-10 6,-1 7,5 7,10zm-23 -1l0 104c0,5 0,10 -6,10 -8,0 -6,-7 -6,-11 0,-17 0,-34 0,-51 0,-18 0,-35 0,-52 0,-4 -1,-9 6,-9 6,0 6,4 6,9zm-22 1l0 103c0,5 -1,10 -8,10 -6,-1 -4,-7 -4,-11l0 -51 0 0c0,-17 -1,-33 0,-50 0,-4 -3,-11 5,-11 7,-1 7,5 7,10zm-23 102c0,5 1,11 -6,10 -6,0 -6,-6 -6,-10 0,-34 0,-68 0,-103 0,-4 0,-9 6,-9 6,0 6,5 6,9 1,18 0,36 0,53 0,17 1,34 0,50z"/>
  <path class="fil20" d="M12718 10651c0,-21 0,-42 0,-63 1,-10 -3,-13 -12,-13 -42,1 -83,1 -124,0l0 0c-10,0 -13,4 -12,13 0,42 0,84 0,125 -1,9 2,12 11,12 42,0 84,0 126,0 9,0 12,-3 11,-12 0,-21 0,-42 0,-62zm-18 -62c8,0 5,7 5,11 0,16 0,33 0,50 0,16 0,33 0,49 0,5 2,12 -5,11 -7,0 -5,-6 -5,-10 0,-34 0,-67 0,-101 0,-4 -2,-10 5,-10zm-15 9c0,35 0,70 0,106 0,5 -2,8 -8,8 -5,0 -5,-5 -5,-8l0 0 0 -53 0 -53c0,-5 0,-10 6,-9 6,0 7,4 7,9zm-23 0c0,35 0,70 0,106 0,5 -1,8 -7,8 -5,0 -5,-5 -5,-8 0,-19 0,-37 0,-55 0,-17 0,-34 0,-51 0,-4 -1,-10 6,-9 6,0 6,5 6,9zm-22 105c0,5 -1,9 -7,9 -7,0 -5,-6 -5,-10l0 -53c0,-17 -1,-34 0,-51 0,-4 -2,-9 5,-9 6,-1 7,4 7,8 0,36 0,71 0,106zm-23 -1c0,5 0,10 -7,10 -6,0 -5,-6 -5,-10 0,-18 0,-35 0,-53 0,-17 0,-34 0,-51 0,-4 -1,-10 6,-9 6,0 6,4 6,9 0,34 0,69 0,104zm-22 0c0,5 -1,10 -7,10 -7,0 -5,-6 -5,-10l0 -53 0 -51c0,-4 -2,-10 5,-9 6,0 7,4 7,9l0 104z"/>
  <path class="fil20" d="M12707 10746c-42,0 -85,0 -127,0 -8,0 -10,3 -10,10 0,43 0,87 0,130 0,8 3,11 10,11 42,-1 85,-1 127,0 9,0 11,-3 11,-12 0,-20 0,-41 0,-62l0 0c0,-22 0,-43 0,-65 0,-8 -1,-12 -11,-12zm-29 14c8,0 7,6 7,11 0,17 0,33 0,50 0,17 0,33 0,50 0,5 1,12 -7,12 -7,0 -6,-7 -6,-11 0,-34 0,-68 0,-101 0,-4 -1,-11 6,-11zm-23 0c7,-1 7,5 7,10 0,34 0,69 0,103 0,4 0,9 -6,10 -8,0 -6,-6 -6,-11 0,-17 0,-34 0,-51 0,-17 0,-33 0,-50 0,-4 -2,-11 5,-11zm40 11c0,-4 -1,-9 5,-9 6,0 5,4 5,8l0 103c0,3 0,8 -5,8 -5,0 -5,-5 -5,-9 0,-17 0,-34 0,-51 0,-17 0,-33 0,-50zm-61 -11c6,0 6,6 6,11 0,17 0,34 0,51 0,17 0,33 0,50 0,5 0,11 -7,11 -8,0 -5,-7 -5,-11 -1,-34 -1,-68 0,-102 0,-4 -2,-11 6,-10zm-24 0c7,-1 7,5 7,10l0 103c0,5 0,10 -7,10 -6,-1 -5,-6 -5,-10l0 -52 0 -51c0,-4 -1,-10 5,-10zm-23 0c7,-1 8,4 8,10l0 103c0,5 -1,10 -7,10 -7,-1 -5,-6 -5,-10 -1,-17 0,-34 0,-52 0,-17 -1,-34 0,-51 0,-4 -2,-10 4,-10z"/>
  <path class="fil20" d="M12412 10746l0 0zm136 12c0,-9 -3,-12 -12,-12 -20,0 -41,0 -61,0 -21,0 -42,0 -63,0 -10,-1 -13,2 -13,12 0,42 0,84 0,126 0,9 2,13 12,13 42,-1 83,-1 124,0 9,0 13,-2 13,-12 -1,-42 -1,-85 0,-127zm-24 62l0 0zm6 61c-7,0 -6,-6 -6,-9 0,-18 0,-35 0,-52 0,-16 0,-33 0,-49 0,-4 -1,-10 6,-9 5,0 4,5 4,8 0,34 0,68 0,103 0,3 1,8 -4,8zm-18 -110c0,17 0,34 0,50 0,17 0,33 0,50 0,4 2,10 -5,10 -6,1 -5,-5 -5,-9 0,-34 0,-68 0,-101 0,-4 -1,-10 5,-10 7,1 5,7 5,10zm-22 0c0,34 0,67 0,101 0,4 1,9 -6,9 -5,0 -5,-5 -5,-9 0,-17 0,-34 0,-51 0,-17 0,-33 0,-50 0,-4 -1,-9 5,-10 7,0 6,6 6,10zm-23 -1c0,34 0,68 0,103 0,3 1,8 -5,8 -6,0 -5,-5 -5,-9l0 0c0,-17 0,-35 0,-52l0 -49c0,-4 -1,-10 5,-10 6,1 5,5 5,9zm-20 102c0,5 0,10 -7,11l0 0c-7,0 -6,-6 -6,-11 0,-17 0,-34 0,-51 0,-17 0,-34 0,-51 0,-4 -1,-10 5,-10 7,-1 8,4 8,9l0 103zm-23 1c0,5 0,10 -7,10l0 0c-7,-1 -5,-7 -5,-10 0,-18 0,-35 0,-52 0,-17 0,-34 0,-51 0,-4 -2,-10 5,-10 7,-1 7,5 7,10l0 103z"/>
  <path class="fil20" d="M12529 10710l0 0zm-5 -114c0,-3 1,-8 6,-7 4,0 4,4 4,7l0 53 0 53c0,3 1,8 -5,8 -5,0 -5,-4 -5,-8l0 -106zm13 130c8,0 11,-3 11,-11 -1,-43 -1,-86 0,-128 0,-8 -3,-12 -11,-12 -42,0 -85,0 -127,0 -9,0 -11,3 -11,11 0,22 0,43 0,65 0,21 0,41 0,62 0,7 0,13 10,13 43,-1 86,-1 128,0zm-25 -128l0 53 0 51c0,4 0,8 -5,8 -5,0 -5,-4 -5,-8l0 0c0,-35 0,-69 0,-104 0,-4 -1,-10 6,-9 5,0 4,5 4,9zm-22 51c0,18 0,35 0,53 0,3 0,8 -5,8 -6,0 -6,-4 -6,-8 0,-35 0,-69 0,-104 0,-4 -1,-10 6,-9 6,0 5,5 5,9 0,17 0,34 0,51zm-28 61l0 0zm5 -61c0,17 0,35 0,52 0,4 1,9 -5,9 -6,0 -5,-6 -5,-10 0,-34 0,-68 0,-102 0,-4 -1,-9 4,-9 7,-1 6,5 6,9 0,17 0,34 0,51zm-20 53c0,5 -1,11 -8,10 -6,0 -5,-6 -5,-10 0,-18 0,-35 0,-53 0,-17 0,-34 0,-51 0,-4 -1,-10 6,-9 6,0 7,4 7,9l0 104zm-30 10l0 0zm7 -114c0,35 0,70 0,106 0,4 -1,8 -7,8 -6,0 -5,-6 -5,-10 0,-17 0,-35 0,-53 0,-17 0,-34 0,-51 0,-4 -1,-9 5,-9 6,0 7,4 7,9z"/>
  <path class="fil20" d="M12364 10746c-41,0 -82,0 -124,0 -8,0 -12,2 -12,11l0 0c1,43 1,85 0,127 0,11 5,13 14,13 20,-1 40,-1 61,-1 20,0 40,0 61,1 9,0 13,-3 13,-13 -1,-42 -1,-83 0,-125 0,-10 -3,-13 -13,-13zm-45 24c0,34 0,68 0,102 0,4 1,9 -6,9 -5,-1 -4,-6 -4,-9l0 -52 0 -49c0,-4 -1,-10 5,-9 6,0 5,5 5,8zm-23 103c0,3 1,8 -5,8l0 0c-5,0 -5,-5 -5,-9 0,-34 0,-68 0,-102 0,-4 0,-8 5,-8 6,0 5,4 5,8 1,17 0,35 0,53l0 50zm-22 0c0,3 0,8 -5,8 -6,0 -5,-5 -5,-9l0 -102c0,-4 -1,-9 5,-8 5,0 5,4 5,8 0,17 0,34 0,51 0,17 0,35 0,52zm-23 -102c1,33 1,67 0,101 0,3 1,8 -4,9 -7,0 -5,-6 -5,-9 -1,-18 -1,-35 -1,-52 0,-16 0,-33 1,-49 0,-4 -2,-9 4,-9 6,-1 5,5 5,9zm80 102l0 -103c0,-3 0,-8 5,-8 7,0 5,5 5,9 1,17 1,34 1,51 0,17 0,34 -1,50 0,4 1,8 -4,9 -6,0 -6,-4 -6,-8l0 0zm28 8c-5,0 -5,-5 -5,-8 0,-34 0,-69 0,-103 0,-3 -1,-8 5,-8 6,0 5,5 5,9 0,17 0,33 0,50 0,17 0,34 0,51 0,4 0,9 -5,9z"/>
  <path class="fil19" d="M12452 11247c-36,9 -73,14 -111,18 -52,3 -104,3 -156,0 0,5 3,7 5,9 45,44 95,81 152,107 97,43 199,53 304,49 1,0 2,0 3,0 -79,-40 -156,-109 -197,-183z"/>
  <path class="fil21" d="M12509 11177c0,17 14,29 30,29 16,0 28,-13 29,-29 -1,-6 1,-12 -10,-7 -10,3 -17,-4 -13,-14 4,-12 -4,-9 -10,-9 -15,1 -27,14 -26,30z"/>
  <path class="fil22" d="M12759 10882c7,1 6,-5 6,-10 1,-16 0,-33 0,-50 0,-17 1,-35 0,-53 0,-4 0,-9 -6,-9 -6,0 -6,5 -6,9 0,35 0,69 0,103 0,4 0,10 6,10l0 0z"/>
  <path class="fil22" d="M12975 10883c7,-1 6,-7 6,-12 0,-16 0,-33 0,-49 0,-18 0,-35 0,-52 0,-5 0,-10 -7,-10 -6,0 -5,5 -5,9 0,35 0,69 0,103 0,5 -2,11 6,11l0 0z"/>
  <path class="fil22" d="M12848 10883c6,0 7,-4 7,-9 0,-35 0,-71 0,-106 0,-5 -2,-9 -7,-8 -5,0 -5,5 -5,9 0,17 0,35 0,53 0,17 0,34 0,51 0,4 -1,9 5,10l0 0z"/>
  <path class="fil22" d="M12804 10883c6,0 6,-5 6,-10 0,-34 0,-69 0,-104 0,-5 0,-9 -6,-9 -7,0 -6,5 -6,9 0,17 0,34 0,52 0,17 0,34 0,51 0,4 -2,11 6,11z"/>
  <path class="fil22" d="M12764 10597c0,-4 0,-8 -6,-8 -5,0 -4,5 -4,9 0,17 0,34 0,51 0,17 -1,34 0,51 0,4 -2,10 5,10 5,0 5,-5 5,-9 0,-34 0,-69 0,-104z"/>
  <path class="fil22" d="M12826 10883c6,0 7,-5 7,-10 0,-35 0,-69 0,-103 0,-5 -1,-11 -7,-10 -7,0 -5,6 -5,10 0,17 0,34 0,51 0,17 0,34 0,52 0,3 -2,9 5,10l0 0z"/>
  <path class="fil22" d="M12776 10821c0,17 0,34 0,51 0,4 -2,10 4,11 7,0 8,-5 8,-10 0,-34 0,-69 0,-103 0,-5 0,-11 -7,-10 -8,0 -5,7 -5,11 -1,17 0,33 0,50l0 0z"/>
  <path class="fil22" d="M12991 10873c0,5 -1,10 6,10 6,0 7,-5 7,-9 0,-35 0,-70 0,-105 0,-4 -1,-9 -7,-9 -7,-1 -6,5 -6,9 0,17 0,34 0,51 0,18 0,36 0,53z"/>
  <path class="fil22" d="M12587 10712c7,0 8,-5 8,-10 0,-35 0,-70 0,-104 0,-5 -1,-9 -7,-9 -7,-1 -5,5 -5,9 0,17 0,34 0,51 0,18 0,35 0,53 0,4 -2,10 5,10l-1 0z"/>
  <path class="fil22" d="M12672 10704c0,3 0,8 5,8 6,0 8,-3 8,-8 0,-36 0,-71 0,-106 0,-5 -1,-9 -7,-9 -6,-1 -6,4 -6,9 0,17 0,35 0,53 0,17 0,35 0,53l0 0z"/>
  <path class="fil22" d="M12587 10760c-6,0 -4,6 -4,10 -1,17 0,34 0,51 0,18 -1,35 0,52 0,4 -2,9 5,10 6,0 7,-5 7,-10 0,-35 0,-69 0,-103 0,-6 -1,-11 -8,-10z"/>
  <path class="fil22" d="M12610 10712c7,0 7,-5 7,-10 0,-35 0,-70 0,-104 0,-5 0,-9 -6,-9 -7,-1 -6,5 -6,9 0,17 0,34 0,51 0,18 0,35 0,53 0,4 -1,10 5,10l0 0z"/>
  <path class="fil22" d="M12650 10704c0,3 0,8 5,8 6,0 7,-3 7,-8 0,-36 0,-71 0,-106 0,-4 0,-9 -6,-9 -7,-1 -6,5 -6,9 0,17 0,34 0,51 0,18 0,36 0,55z"/>
  <path class="fil22" d="M12633 10712c6,0 7,-4 7,-9 0,-35 0,-70 0,-106 0,-4 -1,-9 -7,-8 -7,0 -5,5 -5,9 -1,17 0,34 0,51 0,18 0,36 0,53 0,4 -2,10 5,10l0 0z"/>
  <path class="fil22" d="M12798 10531c0,4 -1,10 5,10 7,1 7,-4 7,-9 0,-17 0,-35 0,-52 0,-17 0,-34 0,-51 0,-5 1,-11 -6,-11 -8,0 -6,6 -6,10 0,35 0,69 0,103l0 0z"/>
  <path class="fil22" d="M12876 10598c0,-4 1,-10 -6,-9 -5,0 -4,5 -4,9 0,16 0,33 0,49 0,18 0,36 0,53 0,4 -2,10 5,10 6,0 5,-6 5,-10 0,-34 0,-68 0,-102l0 0z"/>
  <path class="fil22" d="M12931 10882c5,0 5,-5 5,-9 0,-17 0,-34 0,-52 0,-17 0,-34 0,-51 0,-4 1,-9 -5,-10 -6,0 -7,4 -7,9 0,35 0,70 0,104 0,5 1,10 7,9l0 0z"/>
  <path class="fil22" d="M12849 10589c-7,0 -6,5 -6,9 0,17 0,34 0,51 0,18 0,36 0,53 0,4 -1,10 5,10 6,1 7,-4 7,-8 1,-36 1,-71 0,-106 0,-5 0,-9 -6,-9l0 0z"/>
  <path class="fil22" d="M12781 10589c-7,0 -5,5 -5,9 0,17 0,34 0,51 0,18 0,36 0,53 0,4 -2,10 5,10 5,1 7,-4 7,-8 0,-36 0,-71 0,-106 0,-5 -1,-9 -7,-9l0 0z"/>
  <path class="fil22" d="M12866 10479c0,17 0,34 0,51 0,4 -2,10 5,10 6,0 5,-5 5,-9 0,-35 0,-69 0,-104 0,-4 1,-9 -5,-9 -7,0 -5,6 -5,10 0,17 0,34 0,51l0 0z"/>
  <path class="fil22" d="M12804 10589c-8,-1 -6,6 -6,10 0,17 0,33 0,50 0,18 0,35 0,53 0,4 -1,10 5,10 7,1 7,-5 7,-10 0,-34 0,-68 0,-102 0,-5 1,-11 -6,-11l0 0z"/>
  <path class="fil22" d="M12827 10589c-8,-1 -6,6 -6,10 0,17 0,33 0,50 0,18 0,35 0,53 0,4 -2,10 5,10 6,1 7,-5 7,-10 0,-34 0,-68 0,-102 0,-5 0,-11 -6,-11l0 0z"/>
  <path class="fil22" d="M12866 10873c0,3 -1,8 5,8 6,0 5,-6 5,-9 0,-17 0,-33 0,-50 0,-17 0,-34 0,-51 0,-4 1,-10 -6,-10 -5,1 -4,6 -4,9 0,34 0,68 0,103l0 0z"/>
  <path class="fil22" d="M12759 10540c6,-1 5,-6 5,-10 0,-17 0,-33 0,-50 0,-18 0,-35 0,-53 0,-3 1,-8 -5,-9 -6,0 -5,6 -5,9 -1,35 -1,69 0,103 0,4 -2,10 5,10l0 0z"/>
  <path class="fil22" d="M12776 10531c0,4 -2,11 6,10 7,0 6,-6 6,-11 0,-16 0,-33 0,-50 0,-17 0,-34 0,-51 0,-5 0,-11 -6,-11 -8,0 -6,6 -6,10 0,35 0,69 0,103l0 0z"/>
  <path class="fil22" d="M12946 10871c0,4 -2,12 7,12 8,-1 6,-8 6,-13 0,-16 0,-32 0,-48 0,-17 0,-33 0,-50 0,-5 1,-12 -6,-12 -9,-1 -7,7 -7,12 0,33 0,66 0,99l0 0z"/>
  <path class="fil22" d="M12821 10479c0,18 0,35 0,53 0,4 -1,9 5,9 6,0 7,-4 7,-9 0,-34 0,-69 0,-104 0,-5 0,-10 -7,-10 -7,0 -5,6 -5,10 0,17 0,34 0,51l0 0z"/>
  <path class="fil22" d="M12843 10480c0,17 0,34 0,51 0,4 -2,11 6,10 6,0 6,-5 6,-9 0,-35 0,-70 0,-104 0,-5 0,-10 -6,-10 -8,0 -6,6 -6,10 0,18 0,35 0,52l0 0z"/>
  <path class="fil22" d="M12610 10760c-6,0 -5,6 -5,10 0,17 0,34 0,51 0,17 0,34 0,52 0,4 -1,9 5,10 7,0 7,-5 7,-10 0,-35 0,-69 0,-103 0,-5 0,-11 -7,-10z"/>
  <path class="fil22" d="M12695 10700c0,4 -2,10 5,10 7,1 5,-6 5,-11 0,-16 0,-33 0,-49 0,-17 0,-34 0,-50 0,-4 3,-11 -5,-11 -7,0 -5,6 -5,10 0,34 0,67 0,101z"/>
  <path class="fil22" d="M12417 10883c7,0 7,-5 7,-10 0,-35 0,-69 0,-103 0,-5 0,-11 -7,-10 -7,0 -5,6 -5,10 0,17 0,34 0,51 0,17 0,34 0,52 0,3 -2,9 5,10l0 0z"/>
  <path class="fil22" d="M12354 10873c0,3 0,8 5,8 5,0 5,-5 5,-9 0,-17 0,-34 0,-51 0,-17 0,-33 0,-50 0,-4 1,-9 -5,-9 -6,0 -5,5 -5,8 0,34 0,69 0,103l0 0z"/>
  <path class="fil22" d="M12440 10883c7,-1 7,-6 7,-11 0,-34 0,-68 0,-103 0,-5 -1,-10 -8,-9 -6,0 -5,6 -5,10 0,17 0,34 0,51 0,17 0,34 0,51 0,5 -1,11 6,11l0 0z"/>
  <path class="fil22" d="M12457 10872c0,4 -1,9 5,9 6,0 5,-5 5,-8 0,-35 0,-69 0,-103 0,-4 1,-8 -5,-9 -6,0 -5,6 -5,10 0,16 0,33 0,49 0,17 0,35 0,52l0 0z"/>
  <path class="fil22" d="M12331 10873c0,4 0,8 6,8 5,-1 4,-5 4,-9 1,-16 1,-33 1,-50 0,-17 0,-34 -1,-51 0,-4 2,-9 -5,-9 -5,0 -5,5 -5,8 0,34 0,69 0,103l0 0z"/>
  <path class="fil22" d="M12502 10872c0,4 -1,10 5,9 7,0 5,-6 5,-10 0,-17 0,-33 0,-50 0,-16 0,-33 0,-50 0,-3 2,-9 -5,-10 -6,0 -5,6 -5,10 0,33 0,67 0,101z"/>
  <path class="fil22" d="M12479 10821c0,17 0,34 0,51 0,4 0,9 5,9 7,0 6,-5 6,-9 0,-34 0,-67 0,-101 0,-4 1,-10 -6,-10 -6,1 -5,6 -5,10 0,17 0,33 0,50l0 0z"/>
  <path class="fil22" d="M13385 11012c-5,9 -10,11 -19,8 -22,-6 -43,-12 -61,-25 -6,-4 -9,-3 -14,2 -12,11 -26,19 -42,22 -36,13 -73,15 -111,15 -44,1 -89,-4 -132,-15 -27,-7 -55,-13 -75,-37 -4,-5 -6,-1 -8,2 -51,45 -114,52 -178,49 -36,-1 -71,-9 -103,-26 -14,-7 -25,-22 -37,-25 -11,-2 -21,17 -35,23 -36,15 -74,22 -113,26 -51,6 -102,6 -153,-6 -24,-5 -47,-12 -65,-30 -5,-5 -8,-2 -13,1 -23,14 -48,23 -75,26 -20,7 -41,7 -62,7 -5,0 -8,-2 -9,-8 -5,-30 -3,-60 -2,-90 0,-8 5,-9 12,-9 18,1 37,1 55,1 7,0 14,-1 21,-1 332,0 664,0 996,0 57,0 113,-9 166,-32 20,-8 39,-19 57,-32 4,-2 10,-5 3,-12 -28,-27 -42,-61 -47,-99 -6,-49 -2,-97 22,-141 10,-17 11,-17 25,-4 45,39 78,85 84,147 1,8 1,17 1,25 0,4 0,7 4,7 65,-29 129,-31 194,-4 13,6 12,12 6,22 -32,50 -80,75 -136,85 -27,4 -54,8 -81,3 -13,-2 -19,2 -24,15 -14,38 -32,74 -51,110l0 0zm-32 52c-37,55 -79,107 -129,152 -61,55 -130,98 -204,132 -79,35 -162,58 -248,71 -41,6 -84,9 -126,11l0 0c-105,4 -207,-6 -304,-49 -57,-26 -107,-63 -152,-107 -2,-2 -5,-4 -5,-9 52,3 104,3 156,0 40,-4 80,-10 119,-20l0 0c5,-2 10,-3 15,-5 8,-3 13,-8 11,-17 -3,-9 -10,-10 -18,-7 -33,10 -66,16 -100,20 -27,2 -54,6 -82,5 -38,1 -76,0 -115,-3 -6,0 -9,-2 -13,-7 -37,-52 -61,-108 -72,-171 -2,-8 2,-9 8,-9 21,1 42,1 64,1 5,0 9,-1 14,-1 339,0 678,0 1017,0 5,0 10,1 15,1 47,0 95,0 143,-1 12,0 12,4 6,13l0 0zm-1125 -307c0,-9 4,-11 12,-11 42,0 83,0 124,0 10,0 13,3 13,13 -1,42 -1,83 0,125 0,10 -4,13 -13,13 -21,-1 -41,-1 -61,-1 -21,0 -41,0 -61,1 -9,0 -14,-2 -14,-13 1,-42 1,-84 0,-127l0 0zm184 -11c21,0 42,0 63,0 20,0 41,0 61,0 9,0 12,3 12,12 -1,42 -1,85 0,127 0,10 -4,12 -13,12 -41,-1 -82,-1 -124,0 -10,0 -12,-4 -12,-13 0,-42 0,-84 0,-126 0,-10 3,-13 13,-12l0 0zm-2 -171c42,0 85,0 127,0 8,0 11,4 11,12 -1,42 -1,85 0,128 0,8 -3,11 -11,11 -42,-1 -85,-1 -128,0 -10,0 -10,-6 -10,-13 0,-21 0,-41 0,-62 0,-22 0,-43 0,-65 0,-8 2,-11 11,-11zm308 248c0,21 0,42 0,62 0,9 -2,12 -11,12 -42,-1 -85,-1 -127,0 -7,0 -10,-3 -10,-11 0,-43 0,-87 0,-130 0,-7 2,-10 10,-10 42,0 85,0 127,0 10,0 11,4 11,12 0,22 0,43 0,65l0 0zm-136 -248c41,1 82,1 124,0 9,0 13,3 12,13 0,21 0,42 0,63 0,20 0,41 0,62 1,9 -2,12 -11,12 -42,0 -84,0 -126,0 -9,0 -12,-3 -11,-12 0,-41 0,-83 0,-125 -1,-9 2,-13 12,-13l0 0zm158 184c0,-9 2,-13 13,-13 41,0 83,0 125,0 10,0 13,4 13,13 -1,41 -1,82 0,124 0,10 -3,14 -14,14 -21,-1 -42,0 -63,0 -20,0 -41,-1 -61,0 -9,0 -13,-2 -13,-13 1,-41 0,-83 0,-125l0 0zm0 -280c0,-21 1,-41 0,-61 0,-9 2,-14 12,-13 42,0 84,0 126,0 10,-1 13,3 13,13 -1,41 -1,82 0,124 0,9 -3,13 -13,13 -42,-1 -84,-1 -126,0 -10,0 -12,-4 -12,-13 1,-21 0,-42 0,-63l0 0zm151 234c0,9 -4,13 -12,13 -43,-1 -85,-1 -128,0 -10,0 -11,-5 -11,-13 1,-21 0,-42 0,-63 0,-21 1,-42 0,-63 0,-9 2,-12 12,-12 42,1 84,1 125,0 10,0 14,3 14,13 0,42 0,84 0,125zm20 44c0,-9 4,-11 12,-11 42,0 84,0 127,0 8,0 11,3 11,11 0,43 0,86 0,129 0,8 -4,11 -12,11 -21,-1 -42,-1 -62,-1 -21,0 -42,0 -63,1 -8,0 -13,-2 -13,-12 1,-43 0,-86 0,-128l0 0zm535 194c9,-28 24,-35 53,-35 97,-2 175,-39 218,-132 1,-3 2,-5 2,-7l0 -1c0,-3 -2,-6 -7,-9 -62,-38 -128,-45 -198,-30 -6,2 -13,7 -15,-5 -10,-58 -42,-104 -84,-144 -13,-13 -27,-26 -44,-35 -16,15 -30,31 -38,51 -33,80 -33,158 12,234 5,9 3,12 -5,15 -20,10 -40,18 -61,25 -57,18 -117,15 -175,15 -12,1 -16,-2 -16,-15 1,-47 0,-95 1,-143 0,-15 -5,-17 -18,-17 -43,1 -87,0 -130,0 -27,0 -23,3 -23,-22 0,-102 0,-204 0,-305 0,-11 -2,-15 -14,-15 -59,0 -119,0 -178,0 -12,0 -14,4 -14,14 0,47 -1,94 0,140 1,15 -3,18 -17,18 -104,-1 -206,0 -309,-1 -13,0 -16,4 -16,16 1,48 0,95 0,142 1,11 -2,14 -13,13 -47,0 -94,1 -142,0 -12,0 -16,2 -16,16 1,48 0,97 1,146 0,10 -3,14 -14,13 -40,0 -80,0 -120,0 -8,0 -13,1 -14,11 -3,35 -5,70 -2,106 2,18 2,18 -17,14 -38,-7 -71,-22 -99,-50 -3,28 -10,39 -34,51 -25,12 -53,17 -79,26 73,0 146,1 219,0 12,0 16,4 18,16 14,76 46,144 95,204 99,117 229,172 378,185 115,11 230,0 343,-28 219,-55 393,-173 514,-366 5,-8 11,-11 20,-11 96,1 191,1 287,1 5,0 11,0 16,0 -18,-7 -36,-11 -54,-17 -29,-11 -60,-20 -59,-60 -9,7 -17,15 -26,21 -47,30 -100,35 -154,33 -10,-1 -8,-5 -5,-10 11,-23 25,-44 33,-68l0 0z"/>
  <path class="fil22" d="M12242 10872c0,3 -2,9 5,9 5,-1 4,-6 4,-9 1,-34 1,-68 0,-101 0,-4 1,-10 -5,-9 -6,0 -4,5 -4,9 -1,16 -1,33 -1,49 0,17 0,34 1,52z"/>
  <path class="fil22" d="M12309 10872c0,3 -1,8 4,9 7,0 6,-5 6,-9 0,-34 0,-68 0,-102 0,-3 1,-8 -5,-8 -6,-1 -5,5 -5,9 0,16 0,33 0,49 0,18 0,35 0,52l0 0z"/>
  <path class="fil22" d="M12269 10881c5,0 5,-5 5,-8 0,-17 0,-35 0,-52 0,-17 0,-34 0,-51 0,-4 0,-8 -5,-8 -6,-1 -5,4 -5,8 0,34 0,68 0,102 0,4 -1,9 5,9z"/>
  <path class="fil22" d="M12634 10760c-8,-1 -6,6 -6,10 -1,34 -1,68 0,102 0,4 -3,11 5,11 7,0 7,-6 7,-11 0,-17 0,-33 0,-50 0,-17 0,-34 0,-51 0,-5 0,-11 -6,-11l0 0z"/>
  <path class="fil22" d="M12291 10881c6,0 5,-5 5,-8 0,-17 0,-34 0,-50 0,-18 1,-36 0,-53 0,-4 1,-8 -5,-8 -5,0 -5,4 -5,8 0,34 0,68 0,102 0,4 0,9 5,9l0 0z"/>
  <path class="fil22" d="M12700 10762c-6,0 -5,5 -5,9 0,17 0,33 0,50 0,17 0,34 0,51 0,4 0,9 5,9 5,0 5,-5 5,-8 0,-34 0,-69 0,-103 0,-4 1,-8 -5,-8l0 0z"/>
  <path class="fil22" d="M13020 10883c6,0 6,-5 6,-10 0,-35 0,-69 0,-104 0,-5 -1,-9 -7,-9 -6,0 -5,5 -5,9 0,17 0,34 0,52 0,17 0,34 0,51 0,4 -2,11 6,11z"/>
  <path class="fil22" d="M12529 10710c6,0 5,-5 5,-8 0,-18 0,-35 0,-53 0,-17 0,-35 0,-53 0,-3 0,-7 -4,-7 -5,-1 -6,4 -6,7 0,36 0,71 0,106 0,4 0,8 5,8l0 0z"/>
  <path class="fil22" d="M12685 10771c0,-5 1,-11 -7,-11 -7,0 -6,7 -6,11 0,33 0,67 0,101 0,4 -1,11 6,11 8,0 7,-7 7,-12 0,-17 0,-33 0,-50 0,-17 0,-33 0,-50l0 0z"/>
  <path class="fil22" d="M12524 10820c0,17 0,34 0,52 0,3 -1,9 6,9 5,0 4,-5 4,-8 0,-35 0,-69 0,-103 0,-3 1,-8 -4,-8 -7,-1 -6,5 -6,9 0,16 0,33 0,49l0 0z"/>
  <path class="fil22" d="M12502 10702c0,4 0,8 5,8 5,0 5,-4 5,-8 0,-17 0,-34 0,-51 0,-18 0,-36 0,-53 0,-4 1,-9 -4,-9 -7,-1 -6,5 -6,9 0,35 0,69 0,104l0 0z"/>
  <path class="fil22" d="M12655 10760c-7,0 -5,7 -5,11 0,17 0,33 0,50 0,17 0,34 0,51 0,5 -2,11 6,11 6,-1 6,-6 6,-10 0,-34 0,-69 0,-103 0,-5 0,-11 -7,-10z"/>
  <path class="fil22" d="M13041 10883c7,0 8,-5 8,-10 0,-17 0,-35 0,-52 0,-17 0,-34 0,-51 0,-5 -1,-11 -8,-10 -6,0 -4,6 -4,10 -1,34 -1,68 0,103 0,4 -2,9 4,10z"/>
  <path class="fil22" d="M12417 10712c6,0 7,-4 7,-8 0,-36 0,-71 0,-106 0,-5 -1,-9 -7,-9 -6,0 -5,5 -5,9 0,17 0,34 0,51 0,18 0,36 0,53 0,4 -1,10 5,10l0 0z"/>
  <path class="fil22" d="M12439 10712c7,1 8,-5 8,-10 0,-35 0,-70 0,-104 0,-5 -1,-9 -7,-9 -7,-1 -6,5 -6,9 0,17 0,34 0,51 0,18 0,35 0,53 0,4 -1,10 5,10z"/>
  <path class="fil22" d="M12479 10702c0,4 0,8 6,8 5,0 5,-5 5,-8 0,-18 0,-35 0,-53 0,-17 0,-34 0,-51 0,-4 1,-9 -5,-9 -7,-1 -6,5 -6,9 0,35 0,69 0,104z"/>
  <path class="fil22" d="M12462 10710c6,0 5,-5 5,-9 0,-17 0,-35 0,-52 0,-17 0,-34 0,-51 0,-4 1,-10 -6,-9 -5,0 -4,5 -4,9 0,34 0,68 0,102 0,4 -1,10 5,10l0 0z"/>
 </g>
</svg>
